G04 MADE WITH FRITZING*
G04 WWW.FRITZING.ORG*
G04 DOUBLE SIDED*
G04 HOLES PLATED*
G04 CONTOUR ON CENTER OF CONTOUR VECTOR*
%ASAXBY*%
%FSLAX23Y23*%
%MOIN*%
%OFA0B0*%
%SFA1.0B1.0*%
%ADD10R,0.608047X1.426100X0.592047X1.410100*%
%ADD11C,0.008000*%
%ADD12R,0.001000X0.001000*%
%LNSILK0*%
G90*
G70*
G54D11*
X4Y1422D02*
X604Y1422D01*
X604Y4D01*
X4Y4D01*
X4Y1422D01*
D02*
X66Y1422D02*
X538Y1422D01*
D02*
X66Y1422D02*
X66Y1383D01*
D02*
X538Y1422D02*
X538Y1383D01*
D02*
X460Y1264D02*
X145Y1264D01*
G36*
X495Y1097D02*
X492Y1097D01*
X492Y1100D01*
X495Y1100D01*
X495Y1097D01*
G37*
D02*
G36*
X489Y1074D02*
X486Y1074D01*
X486Y1068D01*
X483Y1068D01*
X483Y1080D01*
X486Y1080D01*
X486Y1077D01*
X489Y1077D01*
X489Y1074D01*
G37*
D02*
G36*
X474Y1106D02*
X471Y1106D01*
X471Y1109D01*
X474Y1109D01*
X474Y1106D01*
G37*
D02*
G36*
X460Y854D02*
X454Y854D01*
X454Y857D01*
X451Y857D01*
X451Y862D01*
X460Y862D01*
X460Y854D01*
G37*
D02*
G36*
X454Y851D02*
X451Y851D01*
X451Y854D01*
X454Y854D01*
X454Y851D01*
G37*
D02*
G36*
X451Y851D02*
X448Y851D01*
X448Y860D01*
X451Y860D01*
X451Y851D01*
G37*
D02*
G36*
X451Y851D02*
X448Y851D01*
X448Y860D01*
X451Y860D01*
X451Y851D01*
G37*
D02*
G36*
X448Y848D02*
X445Y848D01*
X445Y845D01*
X440Y845D01*
X440Y848D01*
X437Y848D01*
X437Y851D01*
X440Y851D01*
X440Y854D01*
X442Y854D01*
X442Y857D01*
X448Y857D01*
X448Y848D01*
G37*
D02*
G36*
X448Y1071D02*
X445Y1071D01*
X445Y1074D01*
X448Y1074D01*
X448Y1071D01*
G37*
D02*
G36*
X445Y1068D02*
X442Y1068D01*
X442Y1071D01*
X445Y1071D01*
X445Y1068D01*
G37*
D02*
G36*
X442Y1117D02*
X440Y1117D01*
X440Y1120D01*
X442Y1120D01*
X442Y1117D01*
G37*
D02*
G36*
X445Y784D02*
X442Y784D01*
X442Y793D01*
X445Y793D01*
X445Y784D01*
G37*
D02*
G36*
X445Y796D02*
X442Y796D01*
X442Y802D01*
X445Y802D01*
X445Y796D01*
G37*
D02*
G36*
X442Y778D02*
X440Y778D01*
X440Y784D01*
X442Y784D01*
X442Y778D01*
G37*
D02*
G36*
X442Y787D02*
X440Y787D01*
X440Y813D01*
X442Y813D01*
X442Y787D01*
G37*
D02*
G36*
X442Y787D02*
X440Y787D01*
X440Y813D01*
X442Y813D01*
X442Y787D01*
G37*
D02*
G36*
X442Y839D02*
X440Y839D01*
X440Y833D01*
X437Y833D01*
X437Y842D01*
X434Y842D01*
X434Y845D01*
X440Y845D01*
X440Y842D01*
X442Y842D01*
X442Y839D01*
G37*
D02*
G36*
X440Y773D02*
X437Y773D01*
X437Y775D01*
X440Y775D01*
X440Y773D01*
G37*
D02*
G36*
X440Y778D02*
X437Y778D01*
X437Y822D01*
X440Y822D01*
X440Y778D01*
G37*
D02*
G36*
X440Y778D02*
X437Y778D01*
X437Y822D01*
X440Y822D01*
X440Y778D01*
G37*
D02*
G36*
X440Y825D02*
X437Y825D01*
X437Y831D01*
X440Y831D01*
X440Y825D01*
G37*
D02*
G36*
X437Y770D02*
X434Y770D01*
X434Y784D01*
X437Y784D01*
X437Y770D01*
G37*
D02*
G36*
X437Y770D02*
X434Y770D01*
X434Y784D01*
X437Y784D01*
X437Y770D01*
G37*
D02*
G36*
X437Y802D02*
X434Y802D01*
X434Y828D01*
X437Y828D01*
X437Y802D01*
G37*
D02*
G36*
X437Y802D02*
X434Y802D01*
X434Y828D01*
X437Y828D01*
X437Y802D01*
G37*
D02*
G36*
X437Y831D02*
X434Y831D01*
X434Y839D01*
X437Y839D01*
X437Y831D01*
G37*
D02*
G36*
X434Y767D02*
X428Y767D01*
X428Y770D01*
X425Y770D01*
X425Y773D01*
X431Y773D01*
X431Y778D01*
X434Y778D01*
X434Y767D01*
G37*
D02*
G36*
X434Y816D02*
X431Y816D01*
X431Y839D01*
X434Y839D01*
X434Y816D01*
G37*
D02*
G36*
X434Y816D02*
X431Y816D01*
X431Y839D01*
X434Y839D01*
X434Y816D01*
G37*
D02*
G36*
X428Y764D02*
X425Y764D01*
X425Y767D01*
X428Y767D01*
X428Y764D01*
G37*
D02*
G36*
X425Y764D02*
X422Y764D01*
X422Y773D01*
X425Y773D01*
X425Y764D01*
G37*
D02*
G36*
X425Y764D02*
X422Y764D01*
X422Y773D01*
X425Y773D01*
X425Y764D01*
G37*
D02*
G36*
X422Y761D02*
X411Y761D01*
X411Y767D01*
X408Y767D01*
X408Y770D01*
X422Y770D01*
X422Y761D01*
G37*
D02*
G36*
X411Y761D02*
X408Y761D01*
X408Y764D01*
X411Y764D01*
X411Y761D01*
G37*
D02*
G36*
X408Y747D02*
X405Y747D01*
X405Y755D01*
X408Y755D01*
X408Y747D01*
G37*
D02*
G36*
X408Y761D02*
X405Y761D01*
X405Y770D01*
X408Y770D01*
X408Y761D01*
G37*
D02*
G36*
X408Y761D02*
X405Y761D01*
X405Y770D01*
X408Y770D01*
X408Y761D01*
G37*
D02*
G36*
X405Y741D02*
X402Y741D01*
X402Y773D01*
X405Y773D01*
X405Y741D01*
G37*
D02*
G36*
X405Y741D02*
X402Y741D01*
X402Y773D01*
X405Y773D01*
X405Y741D01*
G37*
D02*
G36*
X408Y773D02*
X405Y773D01*
X405Y775D01*
X402Y775D01*
X402Y917D01*
X405Y917D01*
X405Y906D01*
X408Y906D01*
X408Y773D01*
G37*
D02*
G36*
X405Y955D02*
X402Y955D01*
X402Y961D01*
X405Y961D01*
X405Y955D01*
G37*
D02*
G36*
X405Y964D02*
X402Y964D01*
X402Y970D01*
X405Y970D01*
X405Y964D01*
G37*
D02*
G36*
X402Y955D02*
X399Y955D01*
X399Y973D01*
X402Y973D01*
X402Y955D01*
G37*
D02*
G36*
X402Y955D02*
X399Y955D01*
X399Y973D01*
X402Y973D01*
X402Y955D01*
G37*
D02*
G36*
X399Y955D02*
X382Y955D01*
X382Y973D01*
X379Y973D01*
X379Y978D01*
X382Y978D01*
X382Y973D01*
X384Y973D01*
X384Y970D01*
X396Y970D01*
X396Y973D01*
X399Y973D01*
X399Y955D01*
G37*
D02*
G36*
X382Y955D02*
X379Y955D01*
X379Y970D01*
X382Y970D01*
X382Y955D01*
G37*
D02*
G36*
X379Y955D02*
X376Y955D01*
X376Y984D01*
X379Y984D01*
X379Y955D01*
G37*
D02*
G36*
X379Y955D02*
X376Y955D01*
X376Y984D01*
X379Y984D01*
X379Y955D01*
G37*
D02*
G36*
X379Y987D02*
X376Y987D01*
X376Y990D01*
X379Y990D01*
X379Y987D01*
G37*
D02*
G36*
X376Y955D02*
X373Y955D01*
X373Y1013D01*
X376Y1013D01*
X376Y955D01*
G37*
D02*
G36*
X376Y955D02*
X373Y955D01*
X373Y1013D01*
X376Y1013D01*
X376Y955D01*
G37*
D02*
G36*
X373Y955D02*
X367Y955D01*
X367Y1019D01*
X370Y1019D01*
X370Y1025D01*
X373Y1025D01*
X373Y955D01*
G37*
D02*
G36*
X373Y1028D02*
X370Y1028D01*
X370Y1030D01*
X373Y1030D01*
X373Y1028D01*
G37*
D02*
G36*
X373Y1033D02*
X370Y1033D01*
X370Y1039D01*
X373Y1039D01*
X373Y1033D01*
G37*
D02*
G36*
X370Y1025D02*
X367Y1025D01*
X367Y1057D01*
X370Y1057D01*
X370Y1025D01*
G37*
D02*
G36*
X370Y1025D02*
X367Y1025D01*
X367Y1057D01*
X370Y1057D01*
X370Y1025D01*
G37*
D02*
G36*
X367Y955D02*
X364Y955D01*
X364Y1042D01*
X367Y1042D01*
X367Y955D01*
G37*
D02*
G36*
X367Y955D02*
X364Y955D01*
X364Y1042D01*
X367Y1042D01*
X367Y955D01*
G37*
D02*
G36*
X367Y1045D02*
X364Y1045D01*
X364Y1051D01*
X367Y1051D01*
X367Y1045D01*
G37*
D02*
G36*
X367Y1054D02*
X364Y1054D01*
X364Y1057D01*
X361Y1057D01*
X361Y1068D01*
X358Y1068D01*
X358Y1071D01*
X361Y1071D01*
X361Y1068D01*
X364Y1068D01*
X364Y1065D01*
X367Y1065D01*
X367Y1054D01*
G37*
D02*
G36*
X364Y955D02*
X361Y955D01*
X361Y1019D01*
X364Y1019D01*
X364Y955D01*
G37*
D02*
G36*
X364Y1022D02*
X361Y1022D01*
X361Y1028D01*
X364Y1028D01*
X364Y1022D01*
G37*
D02*
G36*
X364Y1030D02*
X361Y1030D01*
X361Y1033D01*
X358Y1033D01*
X358Y1039D01*
X361Y1039D01*
X361Y1045D01*
X364Y1045D01*
X364Y1030D01*
G37*
D02*
G36*
X364Y1048D02*
X361Y1048D01*
X361Y1054D01*
X364Y1054D01*
X364Y1048D01*
G37*
D02*
G36*
X361Y955D02*
X358Y955D01*
X358Y1030D01*
X361Y1030D01*
X361Y955D01*
G37*
D02*
G36*
X361Y955D02*
X358Y955D01*
X358Y1030D01*
X361Y1030D01*
X361Y955D01*
G37*
D02*
G36*
X361Y1042D02*
X358Y1042D01*
X358Y1057D01*
X361Y1057D01*
X361Y1042D01*
G37*
D02*
G36*
X361Y1042D02*
X358Y1042D01*
X358Y1057D01*
X361Y1057D01*
X361Y1042D01*
G37*
D02*
G36*
X361Y1059D02*
X358Y1059D01*
X358Y1062D01*
X361Y1062D01*
X361Y1059D01*
G37*
D02*
G36*
X358Y955D02*
X356Y955D01*
X356Y1051D01*
X358Y1051D01*
X358Y955D01*
G37*
D02*
G36*
X358Y955D02*
X356Y955D01*
X356Y1051D01*
X358Y1051D01*
X358Y955D01*
G37*
D02*
G36*
X358Y955D02*
X356Y955D01*
X356Y1051D01*
X358Y1051D01*
X358Y955D01*
G37*
D02*
G36*
X358Y1054D02*
X356Y1054D01*
X356Y1074D01*
X358Y1074D01*
X358Y1054D01*
G37*
D02*
G36*
X358Y1054D02*
X356Y1054D01*
X356Y1074D01*
X358Y1074D01*
X358Y1054D01*
G37*
D02*
G36*
X358Y1054D02*
X356Y1054D01*
X356Y1074D01*
X358Y1074D01*
X358Y1054D01*
G37*
D02*
G36*
X356Y955D02*
X353Y955D01*
X353Y1074D01*
X356Y1074D01*
X356Y955D01*
G37*
D02*
G36*
X356Y955D02*
X353Y955D01*
X353Y1074D01*
X356Y1074D01*
X356Y955D01*
G37*
D02*
G36*
X353Y955D02*
X350Y955D01*
X350Y1039D01*
X353Y1039D01*
X353Y955D01*
G37*
D02*
G36*
X353Y1042D02*
X350Y1042D01*
X350Y1045D01*
X353Y1045D01*
X353Y1042D01*
G37*
D02*
G36*
X353Y1048D02*
X350Y1048D01*
X350Y1065D01*
X347Y1065D01*
X347Y1071D01*
X353Y1071D01*
X353Y1048D01*
G37*
D02*
G36*
X350Y955D02*
X347Y955D01*
X347Y1062D01*
X350Y1062D01*
X350Y955D01*
G37*
D02*
G36*
X350Y955D02*
X347Y955D01*
X347Y1062D01*
X350Y1062D01*
X350Y955D01*
G37*
D02*
G36*
X350Y955D02*
X347Y955D01*
X347Y1062D01*
X350Y1062D01*
X350Y955D01*
G37*
D02*
G36*
X347Y955D02*
X335Y955D01*
X335Y1039D01*
X338Y1039D01*
X338Y1042D01*
X341Y1042D01*
X341Y1048D01*
X344Y1048D01*
X344Y1051D01*
X347Y1051D01*
X347Y955D01*
G37*
D02*
G36*
X347Y1054D02*
X344Y1054D01*
X344Y1068D01*
X347Y1068D01*
X347Y1054D01*
G37*
D02*
G36*
X347Y1054D02*
X344Y1054D01*
X344Y1068D01*
X347Y1068D01*
X347Y1054D01*
G37*
D02*
G36*
X344Y1051D02*
X341Y1051D01*
X341Y1059D01*
X344Y1059D01*
X344Y1051D01*
G37*
D02*
G36*
X344Y1062D02*
X341Y1062D01*
X341Y1065D01*
X344Y1065D01*
X344Y1062D01*
G37*
D02*
G36*
X341Y1045D02*
X338Y1045D01*
X338Y1054D01*
X341Y1054D01*
X341Y1045D01*
G37*
D02*
G36*
X341Y1045D02*
X338Y1045D01*
X338Y1054D01*
X341Y1054D01*
X341Y1045D01*
G37*
D02*
G36*
X341Y1057D02*
X338Y1057D01*
X338Y1062D01*
X341Y1062D01*
X341Y1057D01*
G37*
D02*
G36*
X338Y1042D02*
X335Y1042D01*
X335Y1048D01*
X332Y1048D01*
X332Y1051D01*
X335Y1051D01*
X335Y1057D01*
X338Y1057D01*
X338Y1042D01*
G37*
D02*
G36*
X335Y955D02*
X332Y955D01*
X332Y1045D01*
X335Y1045D01*
X335Y955D01*
G37*
D02*
G36*
X335Y955D02*
X332Y955D01*
X332Y1045D01*
X335Y1045D01*
X335Y955D01*
G37*
D02*
G36*
X332Y955D02*
X329Y955D01*
X329Y1016D01*
X327Y1016D01*
X327Y1036D01*
X329Y1036D01*
X329Y1042D01*
X332Y1042D01*
X332Y955D01*
G37*
D02*
G36*
X329Y955D02*
X327Y955D01*
X327Y973D01*
X329Y973D01*
X329Y955D01*
G37*
D02*
G36*
X329Y975D02*
X327Y975D01*
X327Y1013D01*
X329Y1013D01*
X329Y975D01*
G37*
D02*
G36*
X327Y955D02*
X324Y955D01*
X324Y964D01*
X321Y964D01*
X321Y973D01*
X324Y973D01*
X324Y975D01*
X327Y975D01*
X327Y955D01*
G37*
D02*
G36*
X327Y978D02*
X324Y978D01*
X324Y1030D01*
X327Y1030D01*
X327Y978D01*
G37*
D02*
G36*
X327Y978D02*
X324Y978D01*
X324Y1030D01*
X327Y1030D01*
X327Y978D01*
G37*
D02*
G36*
X324Y955D02*
X315Y955D01*
X315Y958D01*
X321Y958D01*
X321Y961D01*
X324Y961D01*
X324Y955D01*
G37*
D02*
G36*
X324Y975D02*
X321Y975D01*
X321Y990D01*
X324Y990D01*
X324Y975D01*
G37*
D02*
G36*
X324Y993D02*
X321Y993D01*
X321Y999D01*
X324Y999D01*
X324Y993D01*
G37*
D02*
G36*
X324Y1001D02*
X321Y1001D01*
X321Y1004D01*
X324Y1004D01*
X324Y1001D01*
G37*
D02*
G36*
X324Y1007D02*
X321Y1007D01*
X321Y1010D01*
X318Y1010D01*
X318Y1013D01*
X324Y1013D01*
X324Y1007D01*
G37*
D02*
G36*
X324Y1016D02*
X321Y1016D01*
X321Y1022D01*
X324Y1022D01*
X324Y1016D01*
G37*
D02*
G36*
X321Y961D02*
X315Y961D01*
X315Y967D01*
X321Y967D01*
X321Y961D01*
G37*
D02*
G36*
X321Y970D02*
X318Y970D01*
X318Y975D01*
X321Y975D01*
X321Y970D01*
G37*
D02*
G36*
X321Y978D02*
X318Y978D01*
X318Y987D01*
X315Y987D01*
X315Y990D01*
X318Y990D01*
X318Y993D01*
X321Y993D01*
X321Y978D01*
G37*
D02*
G36*
X321Y996D02*
X318Y996D01*
X318Y999D01*
X315Y999D01*
X315Y1004D01*
X318Y1004D01*
X318Y1001D01*
X321Y1001D01*
X321Y996D01*
G37*
D02*
G36*
X318Y970D02*
X315Y970D01*
X315Y984D01*
X318Y984D01*
X318Y970D01*
G37*
D02*
G36*
X318Y970D02*
X315Y970D01*
X315Y984D01*
X318Y984D01*
X318Y970D01*
G37*
D02*
G36*
X315Y955D02*
X312Y955D01*
X312Y981D01*
X315Y981D01*
X315Y955D01*
G37*
D02*
G36*
X315Y955D02*
X312Y955D01*
X312Y981D01*
X315Y981D01*
X315Y955D01*
G37*
D02*
G36*
X315Y955D02*
X312Y955D01*
X312Y981D01*
X315Y981D01*
X315Y955D01*
G37*
D02*
G36*
X312Y955D02*
X309Y955D01*
X309Y958D01*
X312Y958D01*
X312Y955D01*
G37*
D02*
G36*
X312Y961D02*
X309Y961D01*
X309Y970D01*
X312Y970D01*
X312Y961D01*
G37*
D02*
G36*
X312Y973D02*
X309Y973D01*
X309Y981D01*
X312Y981D01*
X312Y973D01*
G37*
D02*
G36*
X405Y973D02*
X402Y973D01*
X402Y975D01*
X405Y975D01*
X405Y973D01*
G37*
D02*
G36*
X405Y978D02*
X402Y978D01*
X402Y987D01*
X405Y987D01*
X405Y978D01*
G37*
D02*
G36*
X402Y738D02*
X396Y738D01*
X396Y735D01*
X324Y735D01*
X324Y738D01*
X327Y738D01*
X327Y741D01*
X329Y741D01*
X329Y738D01*
X387Y738D01*
X387Y741D01*
X390Y741D01*
X390Y738D01*
X393Y738D01*
X393Y741D01*
X402Y741D01*
X402Y738D01*
G37*
D02*
G36*
X402Y917D02*
X390Y917D01*
X390Y920D01*
X393Y920D01*
X393Y923D01*
X396Y923D01*
X396Y920D01*
X402Y920D01*
X402Y917D01*
G37*
D02*
G36*
X402Y975D02*
X399Y975D01*
X399Y978D01*
X402Y978D01*
X402Y975D01*
G37*
D02*
G36*
X390Y920D02*
X327Y920D01*
X327Y917D01*
X315Y917D01*
X315Y920D01*
X321Y920D01*
X321Y923D01*
X390Y923D01*
X390Y920D01*
G37*
D02*
G36*
X387Y764D02*
X384Y764D01*
X384Y770D01*
X382Y770D01*
X382Y773D01*
X387Y773D01*
X387Y764D01*
G37*
D02*
G36*
X384Y761D02*
X382Y761D01*
X382Y767D01*
X384Y767D01*
X384Y761D01*
G37*
D02*
G36*
X382Y761D02*
X379Y761D01*
X379Y773D01*
X382Y773D01*
X382Y761D01*
G37*
D02*
G36*
X382Y761D02*
X379Y761D01*
X379Y773D01*
X382Y773D01*
X382Y761D01*
G37*
D02*
G36*
X379Y761D02*
X376Y761D01*
X376Y773D01*
X379Y773D01*
X379Y761D01*
G37*
D02*
G36*
X387Y787D02*
X376Y787D01*
X376Y796D01*
X387Y796D01*
X387Y787D01*
G37*
D02*
G36*
X387Y810D02*
X376Y810D01*
X376Y822D01*
X387Y822D01*
X387Y810D01*
G37*
D02*
G36*
X387Y836D02*
X382Y836D01*
X382Y839D01*
X379Y839D01*
X379Y836D01*
X376Y836D01*
X376Y848D01*
X387Y848D01*
X387Y836D01*
G37*
D02*
G36*
X387Y862D02*
X376Y862D01*
X376Y871D01*
X387Y871D01*
X387Y862D01*
G37*
D02*
G36*
X387Y886D02*
X384Y886D01*
X384Y888D01*
X387Y888D01*
X387Y886D01*
G37*
D02*
G36*
X387Y891D02*
X384Y891D01*
X384Y888D01*
X382Y888D01*
X382Y886D01*
X376Y886D01*
X376Y897D01*
X387Y897D01*
X387Y891D01*
G37*
D02*
G36*
X387Y1028D02*
X384Y1028D01*
X384Y1030D01*
X387Y1030D01*
X387Y1028D01*
G37*
D02*
G36*
X379Y1112D02*
X376Y1112D01*
X376Y1114D01*
X379Y1114D01*
X379Y1112D01*
G37*
D02*
G36*
X373Y775D02*
X370Y775D01*
X370Y773D01*
X361Y773D01*
X361Y784D01*
X373Y784D01*
X373Y775D01*
G37*
D02*
G36*
X373Y799D02*
X370Y799D01*
X370Y807D01*
X367Y807D01*
X367Y810D01*
X373Y810D01*
X373Y799D01*
G37*
D02*
G36*
X370Y799D02*
X367Y799D01*
X367Y804D01*
X370Y804D01*
X370Y799D01*
G37*
D02*
G36*
X367Y799D02*
X361Y799D01*
X361Y810D01*
X364Y810D01*
X364Y807D01*
X367Y807D01*
X367Y799D01*
G37*
D02*
G36*
X373Y825D02*
X367Y825D01*
X367Y831D01*
X370Y831D01*
X370Y833D01*
X373Y833D01*
X373Y825D01*
G37*
D02*
G36*
X373Y848D02*
X361Y848D01*
X361Y857D01*
X364Y857D01*
X364Y854D01*
X367Y854D01*
X367Y857D01*
X370Y857D01*
X370Y860D01*
X373Y860D01*
X373Y848D01*
G37*
D02*
G36*
X373Y874D02*
X364Y874D01*
X364Y877D01*
X361Y877D01*
X361Y883D01*
X364Y883D01*
X364Y886D01*
X367Y886D01*
X367Y883D01*
X370Y883D01*
X370Y880D01*
X373Y880D01*
X373Y874D01*
G37*
D02*
G36*
X373Y883D02*
X370Y883D01*
X370Y886D01*
X373Y886D01*
X373Y883D01*
G37*
D02*
G36*
X367Y831D02*
X364Y831D01*
X364Y833D01*
X367Y833D01*
X367Y831D01*
G37*
D02*
G36*
X367Y857D02*
X364Y857D01*
X364Y860D01*
X367Y860D01*
X367Y857D01*
G37*
D02*
G36*
X364Y825D02*
X361Y825D01*
X361Y831D01*
X364Y831D01*
X364Y825D01*
G37*
D02*
G36*
X361Y764D02*
X358Y764D01*
X358Y767D01*
X361Y767D01*
X361Y764D01*
G37*
D02*
G36*
X361Y770D02*
X358Y770D01*
X358Y773D01*
X361Y773D01*
X361Y770D01*
G37*
D02*
G36*
X358Y761D02*
X356Y761D01*
X356Y773D01*
X358Y773D01*
X358Y761D01*
G37*
D02*
G36*
X358Y761D02*
X356Y761D01*
X356Y773D01*
X358Y773D01*
X358Y761D01*
G37*
D02*
G36*
X356Y761D02*
X353Y761D01*
X353Y767D01*
X350Y767D01*
X350Y773D01*
X356Y773D01*
X356Y761D01*
G37*
D02*
G36*
X353Y761D02*
X350Y761D01*
X350Y764D01*
X353Y764D01*
X353Y761D01*
G37*
D02*
G36*
X361Y787D02*
X353Y787D01*
X353Y790D01*
X350Y790D01*
X350Y796D01*
X353Y796D01*
X353Y793D01*
X356Y793D01*
X356Y796D01*
X358Y796D01*
X358Y793D01*
X361Y793D01*
X361Y787D01*
G37*
D02*
G36*
X361Y810D02*
X353Y810D01*
X353Y816D01*
X350Y816D01*
X350Y822D01*
X361Y822D01*
X361Y810D01*
G37*
D02*
G36*
X353Y810D02*
X350Y810D01*
X350Y813D01*
X353Y813D01*
X353Y810D01*
G37*
D02*
G36*
X361Y836D02*
X350Y836D01*
X350Y848D01*
X356Y848D01*
X356Y842D01*
X358Y842D01*
X358Y839D01*
X361Y839D01*
X361Y836D01*
G37*
D02*
G36*
X361Y842D02*
X358Y842D01*
X358Y848D01*
X361Y848D01*
X361Y842D01*
G37*
D02*
G36*
X361Y865D02*
X358Y865D01*
X358Y862D01*
X356Y862D01*
X356Y868D01*
X353Y868D01*
X353Y871D01*
X361Y871D01*
X361Y865D01*
G37*
D02*
G36*
X356Y862D02*
X353Y862D01*
X353Y865D01*
X356Y865D01*
X356Y862D01*
G37*
D02*
G36*
X353Y862D02*
X350Y862D01*
X350Y871D01*
X353Y871D01*
X353Y862D01*
G37*
D02*
G36*
X353Y862D02*
X350Y862D01*
X350Y871D01*
X353Y871D01*
X353Y862D01*
G37*
D02*
G36*
X361Y886D02*
X358Y886D01*
X358Y888D01*
X361Y888D01*
X361Y886D01*
G37*
D02*
G36*
X361Y891D02*
X358Y891D01*
X358Y897D01*
X361Y897D01*
X361Y891D01*
G37*
D02*
G36*
X358Y886D02*
X356Y886D01*
X356Y897D01*
X358Y897D01*
X358Y886D01*
G37*
D02*
G36*
X358Y886D02*
X356Y886D01*
X356Y897D01*
X358Y897D01*
X358Y886D01*
G37*
D02*
G36*
X356Y886D02*
X350Y886D01*
X350Y897D01*
X356Y897D01*
X356Y886D01*
G37*
D02*
G36*
X341Y790D02*
X338Y790D01*
X338Y819D01*
X335Y819D01*
X335Y825D01*
X332Y825D01*
X332Y831D01*
X335Y831D01*
X335Y828D01*
X338Y828D01*
X338Y831D01*
X341Y831D01*
X341Y790D01*
G37*
D02*
G36*
X341Y836D02*
X338Y836D01*
X338Y839D01*
X341Y839D01*
X341Y836D01*
G37*
D02*
G36*
X341Y842D02*
X338Y842D01*
X338Y862D01*
X335Y862D01*
X335Y865D01*
X338Y865D01*
X338Y871D01*
X341Y871D01*
X341Y842D01*
G37*
D02*
G36*
X338Y787D02*
X335Y787D01*
X335Y790D01*
X338Y790D01*
X338Y787D01*
G37*
D02*
G36*
X338Y793D02*
X335Y793D01*
X335Y816D01*
X338Y816D01*
X338Y793D01*
G37*
D02*
G36*
X338Y836D02*
X335Y836D01*
X335Y860D01*
X338Y860D01*
X338Y836D01*
G37*
D02*
G36*
X338Y836D02*
X335Y836D01*
X335Y860D01*
X338Y860D01*
X338Y836D01*
G37*
D02*
G36*
X335Y787D02*
X332Y787D01*
X332Y796D01*
X335Y796D01*
X335Y787D01*
G37*
D02*
G36*
X335Y787D02*
X332Y787D01*
X332Y796D01*
X335Y796D01*
X335Y787D01*
G37*
D02*
G36*
X335Y799D02*
X332Y799D01*
X332Y822D01*
X335Y822D01*
X335Y799D01*
G37*
D02*
G36*
X335Y799D02*
X332Y799D01*
X332Y822D01*
X335Y822D01*
X335Y799D01*
G37*
D02*
G36*
X335Y833D02*
X332Y833D01*
X332Y851D01*
X335Y851D01*
X335Y833D01*
G37*
D02*
G36*
X335Y854D02*
X332Y854D01*
X332Y871D01*
X335Y871D01*
X335Y854D01*
G37*
D02*
G36*
X335Y854D02*
X332Y854D01*
X332Y871D01*
X335Y871D01*
X335Y854D01*
G37*
D02*
G36*
X332Y787D02*
X329Y787D01*
X329Y868D01*
X332Y868D01*
X332Y787D01*
G37*
D02*
G36*
X332Y787D02*
X329Y787D01*
X329Y868D01*
X332Y868D01*
X332Y787D01*
G37*
D02*
G36*
X332Y787D02*
X329Y787D01*
X329Y868D01*
X332Y868D01*
X332Y787D01*
G37*
D02*
G36*
X332Y787D02*
X329Y787D01*
X329Y868D01*
X332Y868D01*
X332Y787D01*
G37*
D02*
G36*
X332Y787D02*
X329Y787D01*
X329Y868D01*
X332Y868D01*
X332Y787D01*
G37*
D02*
G36*
X338Y831D02*
X335Y831D01*
X335Y833D01*
X338Y833D01*
X338Y831D01*
G37*
D02*
G36*
X324Y738D02*
X315Y738D01*
X315Y741D01*
X324Y741D01*
X324Y738D01*
G37*
D02*
G36*
X321Y1004D02*
X318Y1004D01*
X318Y1007D01*
X321Y1007D01*
X321Y1004D01*
G37*
D02*
G36*
X318Y993D02*
X315Y993D01*
X315Y996D01*
X318Y996D01*
X318Y993D01*
G37*
D02*
G36*
X315Y744D02*
X312Y744D01*
X312Y749D01*
X309Y749D01*
X309Y752D01*
X315Y752D01*
X315Y744D01*
G37*
D02*
G36*
X315Y903D02*
X312Y903D01*
X312Y857D01*
X309Y857D01*
X309Y909D01*
X312Y909D01*
X312Y912D01*
X315Y912D01*
X315Y903D01*
G37*
D02*
G36*
X315Y915D02*
X312Y915D01*
X312Y917D01*
X315Y917D01*
X315Y915D01*
G37*
D02*
G36*
X315Y984D02*
X312Y984D01*
X312Y987D01*
X315Y987D01*
X315Y984D01*
G37*
D02*
G36*
X315Y990D02*
X312Y990D01*
X312Y993D01*
X315Y993D01*
X315Y990D01*
G37*
D02*
G36*
X500Y1091D02*
X497Y1091D01*
X497Y1083D01*
X495Y1083D01*
X495Y1080D01*
X492Y1080D01*
X492Y1094D01*
X489Y1094D01*
X489Y1097D01*
X492Y1097D01*
X492Y1094D01*
X495Y1094D01*
X495Y1097D01*
X497Y1097D01*
X497Y1094D01*
X500Y1094D01*
X500Y1091D01*
G37*
D02*
G36*
X492Y1077D02*
X489Y1077D01*
X489Y1083D01*
X492Y1083D01*
X492Y1077D01*
G37*
D02*
G36*
X492Y1086D02*
X489Y1086D01*
X489Y1091D01*
X492Y1091D01*
X492Y1086D01*
G37*
D02*
G36*
X492Y1100D02*
X489Y1100D01*
X489Y1106D01*
X492Y1106D01*
X492Y1100D01*
G37*
D02*
G36*
X489Y1080D02*
X486Y1080D01*
X486Y1086D01*
X489Y1086D01*
X489Y1080D01*
G37*
D02*
G36*
X489Y1088D02*
X486Y1088D01*
X486Y1109D01*
X489Y1109D01*
X489Y1088D01*
G37*
D02*
G36*
X489Y1088D02*
X486Y1088D01*
X486Y1109D01*
X489Y1109D01*
X489Y1088D01*
G37*
D02*
G36*
X489Y1088D02*
X486Y1088D01*
X486Y1109D01*
X489Y1109D01*
X489Y1088D01*
G37*
D02*
G36*
X486Y1086D02*
X483Y1086D01*
X483Y1080D01*
X477Y1080D01*
X477Y1086D01*
X480Y1086D01*
X480Y1088D01*
X486Y1088D01*
X486Y1086D01*
G37*
D02*
G36*
X486Y1091D02*
X483Y1091D01*
X483Y1097D01*
X480Y1097D01*
X480Y1100D01*
X477Y1100D01*
X477Y1103D01*
X480Y1103D01*
X480Y1100D01*
X483Y1100D01*
X483Y1109D01*
X486Y1109D01*
X486Y1091D01*
G37*
D02*
G36*
X483Y1091D02*
X480Y1091D01*
X480Y1094D01*
X483Y1094D01*
X483Y1091D01*
G37*
D02*
G36*
X480Y1088D02*
X477Y1088D01*
X477Y1097D01*
X480Y1097D01*
X480Y1088D01*
G37*
D02*
G36*
X477Y1080D02*
X474Y1080D01*
X474Y1106D01*
X477Y1106D01*
X477Y1080D01*
G37*
D02*
G36*
X477Y1080D02*
X474Y1080D01*
X474Y1106D01*
X477Y1106D01*
X477Y1080D01*
G37*
D02*
G36*
X477Y1080D02*
X474Y1080D01*
X474Y1106D01*
X477Y1106D01*
X477Y1080D01*
G37*
D02*
G36*
X474Y1074D02*
X471Y1074D01*
X471Y1071D01*
X469Y1071D01*
X469Y1074D01*
X471Y1074D01*
X471Y1088D01*
X474Y1088D01*
X474Y1074D01*
G37*
D02*
G36*
X474Y1091D02*
X471Y1091D01*
X471Y1103D01*
X474Y1103D01*
X474Y1091D01*
G37*
D02*
G36*
X471Y1077D02*
X469Y1077D01*
X469Y1106D01*
X471Y1106D01*
X471Y1077D01*
G37*
D02*
G36*
X471Y1077D02*
X469Y1077D01*
X469Y1106D01*
X471Y1106D01*
X471Y1077D01*
G37*
D02*
G36*
X471Y1109D02*
X466Y1109D01*
X466Y1114D01*
X463Y1114D01*
X463Y1117D01*
X466Y1117D01*
X466Y1114D01*
X469Y1114D01*
X469Y1112D01*
X471Y1112D01*
X471Y1109D01*
G37*
D02*
G36*
X469Y1065D02*
X466Y1065D01*
X466Y1106D01*
X469Y1106D01*
X469Y1065D01*
G37*
D02*
G36*
X469Y1065D02*
X466Y1065D01*
X466Y1106D01*
X469Y1106D01*
X469Y1065D01*
G37*
D02*
G36*
X466Y1062D02*
X463Y1062D01*
X463Y1068D01*
X466Y1068D01*
X466Y1062D01*
G37*
D02*
G36*
X466Y1071D02*
X463Y1071D01*
X463Y1112D01*
X466Y1112D01*
X466Y1071D01*
G37*
D02*
G36*
X466Y1071D02*
X463Y1071D01*
X463Y1112D01*
X466Y1112D01*
X466Y1071D01*
G37*
D02*
G36*
X463Y1059D02*
X460Y1059D01*
X460Y1106D01*
X463Y1106D01*
X463Y1059D01*
G37*
D02*
G36*
X463Y1059D02*
X460Y1059D01*
X460Y1106D01*
X463Y1106D01*
X463Y1059D01*
G37*
D02*
G36*
X463Y1109D02*
X460Y1109D01*
X460Y1120D01*
X463Y1120D01*
X463Y1109D01*
G37*
D02*
G36*
X463Y1109D02*
X460Y1109D01*
X460Y1120D01*
X463Y1120D01*
X463Y1109D01*
G37*
D02*
G36*
X460Y1057D02*
X457Y1057D01*
X457Y1054D01*
X454Y1054D01*
X454Y1062D01*
X457Y1062D01*
X457Y1065D01*
X460Y1065D01*
X460Y1057D01*
G37*
D02*
G36*
X460Y1068D02*
X457Y1068D01*
X457Y1112D01*
X460Y1112D01*
X460Y1068D01*
G37*
D02*
G36*
X460Y1068D02*
X457Y1068D01*
X457Y1112D01*
X460Y1112D01*
X460Y1068D01*
G37*
D02*
G36*
X460Y1114D02*
X457Y1114D01*
X457Y1120D01*
X454Y1120D01*
X454Y1126D01*
X457Y1126D01*
X457Y1123D01*
X460Y1123D01*
X460Y1114D01*
G37*
D02*
G36*
X457Y1065D02*
X454Y1065D01*
X454Y1071D01*
X457Y1071D01*
X457Y1065D01*
G37*
D02*
G36*
X457Y1074D02*
X454Y1074D01*
X454Y1117D01*
X457Y1117D01*
X457Y1074D01*
G37*
D02*
G36*
X457Y1074D02*
X454Y1074D01*
X454Y1117D01*
X457Y1117D01*
X457Y1074D01*
G37*
D02*
G36*
X454Y1074D02*
X451Y1074D01*
X451Y1077D01*
X454Y1077D01*
X454Y1074D01*
G37*
D02*
G36*
X454Y1080D02*
X451Y1080D01*
X451Y1106D01*
X454Y1106D01*
X454Y1080D01*
G37*
D02*
G36*
X451Y1074D02*
X448Y1074D01*
X448Y1109D01*
X451Y1109D01*
X451Y1074D01*
G37*
D02*
G36*
X451Y1074D02*
X448Y1074D01*
X448Y1109D01*
X451Y1109D01*
X451Y1074D01*
G37*
D02*
G36*
X448Y1077D02*
X445Y1077D01*
X445Y1109D01*
X442Y1109D01*
X442Y1112D01*
X440Y1112D01*
X440Y1114D01*
X442Y1114D01*
X442Y1112D01*
X448Y1112D01*
X448Y1077D01*
G37*
D02*
G36*
X445Y1074D02*
X442Y1074D01*
X442Y1071D01*
X440Y1071D01*
X440Y1077D01*
X442Y1077D01*
X442Y1106D01*
X445Y1106D01*
X445Y1074D01*
G37*
D02*
G36*
X442Y1065D02*
X440Y1065D01*
X440Y1068D01*
X442Y1068D01*
X442Y1065D01*
G37*
D02*
G36*
X442Y1080D02*
X440Y1080D01*
X440Y1109D01*
X442Y1109D01*
X442Y1080D01*
G37*
D02*
G36*
X440Y1057D02*
X437Y1057D01*
X437Y1054D01*
X434Y1054D01*
X434Y1051D01*
X431Y1051D01*
X431Y1054D01*
X434Y1054D01*
X434Y1068D01*
X437Y1068D01*
X437Y1071D01*
X440Y1071D01*
X440Y1057D01*
G37*
D02*
G36*
X440Y1074D02*
X437Y1074D01*
X437Y1117D01*
X440Y1117D01*
X440Y1074D01*
G37*
D02*
G36*
X440Y1074D02*
X437Y1074D01*
X437Y1117D01*
X440Y1117D01*
X440Y1074D01*
G37*
D02*
G36*
X440Y1074D02*
X437Y1074D01*
X437Y1117D01*
X440Y1117D01*
X440Y1074D01*
G37*
D02*
G36*
X440Y1120D02*
X437Y1120D01*
X437Y1123D01*
X440Y1123D01*
X440Y1120D01*
G37*
D02*
G36*
X437Y1071D02*
X434Y1071D01*
X434Y1126D01*
X437Y1126D01*
X437Y1071D01*
G37*
D02*
G36*
X437Y1071D02*
X434Y1071D01*
X434Y1126D01*
X437Y1126D01*
X437Y1071D01*
G37*
D02*
G36*
X434Y1057D02*
X431Y1057D01*
X431Y1074D01*
X434Y1074D01*
X434Y1057D01*
G37*
D02*
G36*
X434Y1057D02*
X431Y1057D01*
X431Y1074D01*
X434Y1074D01*
X434Y1057D01*
G37*
D02*
G36*
X434Y1077D02*
X431Y1077D01*
X431Y1112D01*
X434Y1112D01*
X434Y1077D01*
G37*
D02*
G36*
X434Y1114D02*
X431Y1114D01*
X431Y1117D01*
X434Y1117D01*
X434Y1114D01*
G37*
D02*
G36*
X434Y1120D02*
X431Y1120D01*
X431Y1132D01*
X434Y1132D01*
X434Y1120D01*
G37*
D02*
G36*
X431Y1045D02*
X428Y1045D01*
X428Y1135D01*
X431Y1135D01*
X431Y1045D01*
G37*
D02*
G36*
X431Y1045D02*
X428Y1045D01*
X428Y1135D01*
X431Y1135D01*
X431Y1045D01*
G37*
D02*
G36*
X431Y1045D02*
X428Y1045D01*
X428Y1135D01*
X431Y1135D01*
X431Y1045D01*
G37*
D02*
G36*
X431Y1045D02*
X428Y1045D01*
X428Y1135D01*
X431Y1135D01*
X431Y1045D01*
G37*
D02*
G36*
X431Y1045D02*
X428Y1045D01*
X428Y1135D01*
X431Y1135D01*
X431Y1045D01*
G37*
D02*
G36*
X428Y1042D02*
X425Y1042D01*
X425Y1039D01*
X422Y1039D01*
X422Y1071D01*
X425Y1071D01*
X425Y1077D01*
X428Y1077D01*
X428Y1042D01*
G37*
D02*
G36*
X428Y1080D02*
X425Y1080D01*
X425Y1114D01*
X428Y1114D01*
X428Y1080D01*
G37*
D02*
G36*
X428Y1117D02*
X425Y1117D01*
X425Y1135D01*
X428Y1135D01*
X428Y1117D01*
G37*
D02*
G36*
X428Y1138D02*
X425Y1138D01*
X425Y1141D01*
X428Y1141D01*
X428Y1138D01*
G37*
D02*
G36*
X425Y1074D02*
X422Y1074D01*
X422Y1143D01*
X425Y1143D01*
X425Y1074D01*
G37*
D02*
G36*
X425Y1074D02*
X422Y1074D01*
X422Y1143D01*
X425Y1143D01*
X425Y1074D01*
G37*
D02*
G36*
X425Y1074D02*
X422Y1074D01*
X422Y1143D01*
X425Y1143D01*
X425Y1074D01*
G37*
D02*
G36*
X425Y1074D02*
X422Y1074D01*
X422Y1143D01*
X425Y1143D01*
X425Y1074D01*
G37*
D02*
G36*
X422Y1083D02*
X419Y1083D01*
X419Y1097D01*
X416Y1097D01*
X416Y1100D01*
X422Y1100D01*
X422Y1083D01*
G37*
D02*
G36*
X419Y1086D02*
X416Y1086D01*
X416Y1094D01*
X419Y1094D01*
X419Y1086D01*
G37*
D02*
G36*
X416Y1083D02*
X413Y1083D01*
X413Y1088D01*
X411Y1088D01*
X411Y1097D01*
X408Y1097D01*
X408Y1100D01*
X413Y1100D01*
X413Y1097D01*
X416Y1097D01*
X416Y1083D01*
G37*
D02*
G36*
X413Y1083D02*
X411Y1083D01*
X411Y1086D01*
X413Y1086D01*
X413Y1083D01*
G37*
D02*
G36*
X411Y1083D02*
X408Y1083D01*
X408Y1094D01*
X411Y1094D01*
X411Y1083D01*
G37*
D02*
G36*
X411Y1083D02*
X408Y1083D01*
X408Y1094D01*
X411Y1094D01*
X411Y1083D01*
G37*
D02*
G36*
X408Y1083D02*
X405Y1083D01*
X405Y1100D01*
X408Y1100D01*
X408Y1083D01*
G37*
D02*
G36*
X408Y1083D02*
X405Y1083D01*
X405Y1100D01*
X408Y1100D01*
X408Y1083D01*
G37*
D02*
G36*
X405Y1028D02*
X399Y1028D01*
X399Y1030D01*
X402Y1030D01*
X402Y1033D01*
X405Y1033D01*
X405Y1028D01*
G37*
D02*
G36*
X405Y1036D02*
X402Y1036D01*
X402Y1068D01*
X405Y1068D01*
X405Y1036D01*
G37*
D02*
G36*
X405Y1071D02*
X402Y1071D01*
X402Y1152D01*
X405Y1152D01*
X405Y1071D01*
G37*
D02*
G36*
X405Y1155D02*
X402Y1155D01*
X402Y1161D01*
X405Y1161D01*
X405Y1155D01*
G37*
D02*
G36*
X402Y1013D02*
X399Y1013D01*
X399Y1004D01*
X393Y1004D01*
X393Y1016D01*
X396Y1016D01*
X396Y1025D01*
X402Y1025D01*
X402Y1013D01*
G37*
D02*
G36*
X402Y1033D02*
X399Y1033D01*
X399Y1048D01*
X396Y1048D01*
X396Y1051D01*
X399Y1051D01*
X399Y1065D01*
X402Y1065D01*
X402Y1033D01*
G37*
D02*
G36*
X402Y1068D02*
X399Y1068D01*
X399Y1086D01*
X402Y1086D01*
X402Y1068D01*
G37*
D02*
G36*
X402Y1088D02*
X399Y1088D01*
X399Y1161D01*
X402Y1161D01*
X402Y1088D01*
G37*
D02*
G36*
X402Y1088D02*
X399Y1088D01*
X399Y1161D01*
X402Y1161D01*
X402Y1088D01*
G37*
D02*
G36*
X399Y1028D02*
X396Y1028D01*
X396Y1036D01*
X399Y1036D01*
X399Y1028D01*
G37*
D02*
G36*
X399Y1028D02*
X396Y1028D01*
X396Y1036D01*
X399Y1036D01*
X399Y1028D01*
G37*
D02*
G36*
X399Y1039D02*
X396Y1039D01*
X396Y1045D01*
X399Y1045D01*
X399Y1039D01*
G37*
D02*
G36*
X399Y1054D02*
X396Y1054D01*
X396Y1083D01*
X399Y1083D01*
X399Y1054D01*
G37*
D02*
G36*
X399Y1054D02*
X396Y1054D01*
X396Y1083D01*
X399Y1083D01*
X399Y1054D01*
G37*
D02*
G36*
X399Y1086D02*
X396Y1086D01*
X396Y1091D01*
X393Y1091D01*
X393Y1109D01*
X396Y1109D01*
X396Y1114D01*
X399Y1114D01*
X399Y1086D01*
G37*
D02*
G36*
X399Y1117D02*
X396Y1117D01*
X396Y1120D01*
X393Y1120D01*
X393Y1161D01*
X399Y1161D01*
X399Y1117D01*
G37*
D02*
G36*
X396Y999D02*
X393Y999D01*
X393Y1001D01*
X396Y1001D01*
X396Y999D01*
G37*
D02*
G36*
X396Y1019D02*
X393Y1019D01*
X393Y1048D01*
X396Y1048D01*
X396Y1019D01*
G37*
D02*
G36*
X396Y1019D02*
X393Y1019D01*
X393Y1048D01*
X396Y1048D01*
X396Y1019D01*
G37*
D02*
G36*
X396Y1019D02*
X393Y1019D01*
X393Y1048D01*
X396Y1048D01*
X396Y1019D01*
G37*
D02*
G36*
X396Y1051D02*
X393Y1051D01*
X393Y1077D01*
X390Y1077D01*
X390Y1080D01*
X393Y1080D01*
X393Y1086D01*
X396Y1086D01*
X396Y1051D01*
G37*
D02*
G36*
X396Y1112D02*
X393Y1112D01*
X393Y1117D01*
X396Y1117D01*
X396Y1112D01*
G37*
D02*
G36*
X393Y999D02*
X390Y999D01*
X390Y1007D01*
X393Y1007D01*
X393Y999D01*
G37*
D02*
G36*
X393Y999D02*
X390Y999D01*
X390Y1007D01*
X393Y1007D01*
X393Y999D01*
G37*
D02*
G36*
X393Y1010D02*
X390Y1010D01*
X390Y1022D01*
X393Y1022D01*
X393Y1010D01*
G37*
D02*
G36*
X393Y1010D02*
X390Y1010D01*
X390Y1022D01*
X393Y1022D01*
X393Y1010D01*
G37*
D02*
G36*
X393Y1025D02*
X390Y1025D01*
X390Y1028D01*
X393Y1028D01*
X393Y1025D01*
G37*
D02*
G36*
X393Y1033D02*
X390Y1033D01*
X390Y1036D01*
X393Y1036D01*
X393Y1033D01*
G37*
D02*
G36*
X393Y1039D02*
X390Y1039D01*
X390Y1054D01*
X393Y1054D01*
X393Y1039D01*
G37*
D02*
G36*
X393Y1039D02*
X390Y1039D01*
X390Y1054D01*
X393Y1054D01*
X393Y1039D01*
G37*
D02*
G36*
X393Y1057D02*
X390Y1057D01*
X390Y1059D01*
X387Y1059D01*
X387Y1065D01*
X390Y1065D01*
X390Y1068D01*
X393Y1068D01*
X393Y1057D01*
G37*
D02*
G36*
X393Y1071D02*
X390Y1071D01*
X390Y1074D01*
X393Y1074D01*
X393Y1071D01*
G37*
D02*
G36*
X393Y1083D02*
X390Y1083D01*
X390Y1100D01*
X393Y1100D01*
X393Y1083D01*
G37*
D02*
G36*
X393Y1083D02*
X390Y1083D01*
X390Y1100D01*
X393Y1100D01*
X393Y1083D01*
G37*
D02*
G36*
X393Y1103D02*
X390Y1103D01*
X390Y1161D01*
X393Y1161D01*
X393Y1103D01*
G37*
D02*
G36*
X393Y1103D02*
X390Y1103D01*
X390Y1161D01*
X393Y1161D01*
X393Y1103D01*
G37*
D02*
G36*
X393Y1103D02*
X390Y1103D01*
X390Y1161D01*
X393Y1161D01*
X393Y1103D01*
G37*
D02*
G36*
X390Y1004D02*
X387Y1004D01*
X387Y1028D01*
X390Y1028D01*
X390Y1004D01*
G37*
D02*
G36*
X390Y1004D02*
X387Y1004D01*
X387Y1028D01*
X390Y1028D01*
X390Y1004D01*
G37*
D02*
G36*
X390Y1004D02*
X387Y1004D01*
X387Y1028D01*
X390Y1028D01*
X390Y1004D01*
G37*
D02*
G36*
X390Y1030D02*
X387Y1030D01*
X387Y1057D01*
X390Y1057D01*
X390Y1030D01*
G37*
D02*
G36*
X390Y1030D02*
X387Y1030D01*
X387Y1057D01*
X390Y1057D01*
X390Y1030D01*
G37*
D02*
G36*
X390Y1068D02*
X387Y1068D01*
X387Y1071D01*
X390Y1071D01*
X390Y1068D01*
G37*
D02*
G36*
X390Y1074D02*
X387Y1074D01*
X387Y1077D01*
X390Y1077D01*
X390Y1074D01*
G37*
D02*
G36*
X390Y1080D02*
X387Y1080D01*
X387Y1086D01*
X390Y1086D01*
X390Y1080D01*
G37*
D02*
G36*
X390Y1088D02*
X387Y1088D01*
X387Y1097D01*
X390Y1097D01*
X390Y1088D01*
G37*
D02*
G36*
X390Y1100D02*
X387Y1100D01*
X387Y1106D01*
X390Y1106D01*
X390Y1100D01*
G37*
D02*
G36*
X390Y1109D02*
X387Y1109D01*
X387Y1126D01*
X384Y1126D01*
X384Y1161D01*
X390Y1161D01*
X390Y1109D01*
G37*
D02*
G36*
X387Y1022D02*
X384Y1022D01*
X384Y1025D01*
X387Y1025D01*
X387Y1022D01*
G37*
D02*
G36*
X387Y1033D02*
X384Y1033D01*
X384Y1039D01*
X387Y1039D01*
X387Y1033D01*
G37*
D02*
G36*
X387Y1042D02*
X384Y1042D01*
X384Y1088D01*
X387Y1088D01*
X387Y1042D01*
G37*
D02*
G36*
X387Y1042D02*
X384Y1042D01*
X384Y1088D01*
X387Y1088D01*
X387Y1042D01*
G37*
D02*
G36*
X387Y1042D02*
X384Y1042D01*
X384Y1088D01*
X387Y1088D01*
X387Y1042D01*
G37*
D02*
G36*
X387Y1042D02*
X384Y1042D01*
X384Y1088D01*
X387Y1088D01*
X387Y1042D01*
G37*
D02*
G36*
X387Y1042D02*
X384Y1042D01*
X384Y1088D01*
X387Y1088D01*
X387Y1042D01*
G37*
D02*
G36*
X387Y1091D02*
X384Y1091D01*
X384Y1120D01*
X387Y1120D01*
X387Y1091D01*
G37*
D02*
G36*
X387Y1091D02*
X384Y1091D01*
X384Y1120D01*
X387Y1120D01*
X387Y1091D01*
G37*
D02*
G36*
X387Y1091D02*
X384Y1091D01*
X384Y1120D01*
X387Y1120D01*
X387Y1091D01*
G37*
D02*
G36*
X384Y1059D02*
X382Y1059D01*
X382Y1074D01*
X384Y1074D01*
X384Y1059D01*
G37*
D02*
G36*
X384Y1077D02*
X382Y1077D01*
X382Y1100D01*
X384Y1100D01*
X384Y1077D01*
G37*
D02*
G36*
X384Y1077D02*
X382Y1077D01*
X382Y1100D01*
X384Y1100D01*
X384Y1077D01*
G37*
D02*
G36*
X384Y1103D02*
X382Y1103D01*
X382Y1106D01*
X384Y1106D01*
X384Y1103D01*
G37*
D02*
G36*
X384Y1109D02*
X382Y1109D01*
X382Y1161D01*
X384Y1161D01*
X384Y1109D01*
G37*
D02*
G36*
X384Y1109D02*
X382Y1109D01*
X382Y1161D01*
X384Y1161D01*
X384Y1109D01*
G37*
D02*
G36*
X382Y1094D02*
X379Y1094D01*
X379Y1112D01*
X382Y1112D01*
X382Y1094D01*
G37*
D02*
G36*
X382Y1094D02*
X379Y1094D01*
X379Y1112D01*
X382Y1112D01*
X382Y1094D01*
G37*
D02*
G36*
X382Y1094D02*
X379Y1094D01*
X379Y1112D01*
X382Y1112D01*
X382Y1094D01*
G37*
D02*
G36*
X382Y1114D02*
X379Y1114D01*
X379Y1120D01*
X382Y1120D01*
X382Y1114D01*
G37*
D02*
G36*
X382Y1123D02*
X379Y1123D01*
X379Y1129D01*
X376Y1129D01*
X376Y1161D01*
X382Y1161D01*
X382Y1123D01*
G37*
D02*
G36*
X379Y1117D02*
X376Y1117D01*
X376Y1126D01*
X379Y1126D01*
X379Y1117D01*
G37*
D02*
G36*
X379Y1117D02*
X376Y1117D01*
X376Y1126D01*
X379Y1126D01*
X379Y1117D01*
G37*
D02*
G36*
X376Y1123D02*
X373Y1123D01*
X373Y1161D01*
X376Y1161D01*
X376Y1123D01*
G37*
D02*
G36*
X376Y1123D02*
X373Y1123D01*
X373Y1161D01*
X376Y1161D01*
X376Y1123D01*
G37*
D02*
G36*
X373Y1129D02*
X370Y1129D01*
X370Y1138D01*
X373Y1138D01*
X373Y1129D01*
G37*
D02*
G36*
X373Y1141D02*
X370Y1141D01*
X370Y1146D01*
X367Y1146D01*
X367Y1149D01*
X364Y1149D01*
X364Y1152D01*
X361Y1152D01*
X361Y1161D01*
X373Y1161D01*
X373Y1141D01*
G37*
D02*
G36*
X370Y1135D02*
X367Y1135D01*
X367Y1141D01*
X370Y1141D01*
X370Y1135D01*
G37*
D02*
G36*
X367Y1141D02*
X364Y1141D01*
X364Y1146D01*
X367Y1146D01*
X367Y1141D01*
G37*
D02*
G36*
X364Y1141D02*
X361Y1141D01*
X361Y1149D01*
X364Y1149D01*
X364Y1141D01*
G37*
D02*
G36*
X361Y1143D02*
X358Y1143D01*
X358Y1161D01*
X361Y1161D01*
X361Y1143D01*
G37*
D02*
G36*
X361Y1143D02*
X358Y1143D01*
X358Y1161D01*
X361Y1161D01*
X361Y1143D01*
G37*
D02*
G36*
X358Y1143D02*
X350Y1143D01*
X350Y1149D01*
X347Y1149D01*
X347Y1152D01*
X344Y1152D01*
X344Y1161D01*
X358Y1161D01*
X358Y1143D01*
G37*
D02*
G36*
X350Y1143D02*
X347Y1143D01*
X347Y1146D01*
X350Y1146D01*
X350Y1143D01*
G37*
D02*
G36*
X347Y1141D02*
X341Y1141D01*
X341Y1143D01*
X344Y1143D01*
X344Y1149D01*
X347Y1149D01*
X347Y1141D01*
G37*
D02*
G36*
X344Y1146D02*
X341Y1146D01*
X341Y1161D01*
X344Y1161D01*
X344Y1146D01*
G37*
D02*
G36*
X344Y1146D02*
X341Y1146D01*
X341Y1161D01*
X344Y1161D01*
X344Y1146D01*
G37*
D02*
G36*
X341Y1138D02*
X338Y1138D01*
X338Y1149D01*
X341Y1149D01*
X341Y1138D01*
G37*
D02*
G36*
X341Y1138D02*
X338Y1138D01*
X338Y1149D01*
X341Y1149D01*
X341Y1138D01*
G37*
D02*
G36*
X341Y1152D02*
X338Y1152D01*
X338Y1161D01*
X341Y1161D01*
X341Y1152D01*
G37*
D02*
G36*
X338Y1138D02*
X335Y1138D01*
X335Y1135D01*
X332Y1135D01*
X332Y1138D01*
X335Y1138D01*
X335Y1146D01*
X338Y1146D01*
X338Y1138D01*
G37*
D02*
G36*
X338Y1149D02*
X335Y1149D01*
X335Y1161D01*
X338Y1161D01*
X338Y1149D01*
G37*
D02*
G36*
X335Y1141D02*
X332Y1141D01*
X332Y1161D01*
X335Y1161D01*
X335Y1141D01*
G37*
D02*
G36*
X335Y1141D02*
X332Y1141D01*
X332Y1161D01*
X335Y1161D01*
X335Y1141D01*
G37*
D02*
G36*
X332Y1132D02*
X327Y1132D01*
X327Y1129D01*
X324Y1129D01*
X324Y1126D01*
X321Y1126D01*
X321Y1120D01*
X318Y1120D01*
X318Y1129D01*
X321Y1129D01*
X321Y1132D01*
X324Y1132D01*
X324Y1135D01*
X327Y1135D01*
X327Y1138D01*
X329Y1138D01*
X329Y1141D01*
X332Y1141D01*
X332Y1132D01*
G37*
D02*
G36*
X332Y1143D02*
X329Y1143D01*
X329Y1161D01*
X332Y1161D01*
X332Y1143D01*
G37*
D02*
G36*
X329Y1141D02*
X327Y1141D01*
X327Y1158D01*
X324Y1158D01*
X324Y1161D01*
X329Y1161D01*
X329Y1141D01*
G37*
D02*
G36*
X327Y1138D02*
X324Y1138D01*
X324Y1155D01*
X327Y1155D01*
X327Y1138D01*
G37*
D02*
G36*
X324Y1135D02*
X321Y1135D01*
X321Y1141D01*
X324Y1141D01*
X324Y1135D01*
G37*
D02*
G36*
X324Y1143D02*
X321Y1143D01*
X321Y1161D01*
X324Y1161D01*
X324Y1143D01*
G37*
D02*
G36*
X324Y1143D02*
X321Y1143D01*
X321Y1161D01*
X324Y1161D01*
X324Y1143D01*
G37*
D02*
G36*
X321Y1132D02*
X318Y1132D01*
X318Y1152D01*
X321Y1152D01*
X321Y1132D01*
G37*
D02*
G36*
X321Y1132D02*
X318Y1132D01*
X318Y1152D01*
X321Y1152D01*
X321Y1132D01*
G37*
D02*
G36*
X321Y1155D02*
X318Y1155D01*
X318Y1158D01*
X315Y1158D01*
X315Y1161D01*
X321Y1161D01*
X321Y1155D01*
G37*
D02*
G36*
X318Y1120D02*
X315Y1120D01*
X315Y1135D01*
X318Y1135D01*
X318Y1120D01*
G37*
D02*
G36*
X318Y1120D02*
X315Y1120D01*
X315Y1135D01*
X318Y1135D01*
X318Y1120D01*
G37*
D02*
G36*
X318Y1138D02*
X315Y1138D01*
X315Y1155D01*
X318Y1155D01*
X318Y1138D01*
G37*
D02*
G36*
X315Y1114D02*
X312Y1114D01*
X312Y1120D01*
X315Y1120D01*
X315Y1114D01*
G37*
D02*
G36*
X315Y1123D02*
X312Y1123D01*
X312Y1152D01*
X315Y1152D01*
X315Y1123D01*
G37*
D02*
G36*
X315Y1123D02*
X312Y1123D01*
X312Y1152D01*
X315Y1152D01*
X315Y1123D01*
G37*
D02*
G36*
X312Y1109D02*
X309Y1109D01*
X309Y1155D01*
X312Y1155D01*
X312Y1109D01*
G37*
D02*
G36*
X312Y1109D02*
X309Y1109D01*
X309Y1155D01*
X312Y1155D01*
X312Y1109D01*
G37*
D02*
G36*
X315Y1155D02*
X312Y1155D01*
X312Y1158D01*
X315Y1158D01*
X315Y1155D01*
G37*
D02*
G36*
X312Y755D02*
X309Y755D01*
X309Y784D01*
X312Y784D01*
X312Y755D01*
G37*
D02*
G36*
X312Y787D02*
X309Y787D01*
X309Y854D01*
X312Y854D01*
X312Y787D01*
G37*
D02*
G36*
X312Y1158D02*
X309Y1158D01*
X309Y1161D01*
X312Y1161D01*
X312Y1158D01*
G37*
D02*
G54D12*
D02*
G04 End of Silk0*
M02*