G04 MADE WITH FRITZING*
G04 WWW.FRITZING.ORG*
G04 DOUBLE SIDED*
G04 HOLES PLATED*
G04 CONTOUR ON CENTER OF CONTOUR VECTOR*
%ASAXBY*%
%FSLAX23Y23*%
%MOIN*%
%OFA0B0*%
%SFA1.0B1.0*%
%ADD10C,0.075000*%
%ADD11C,0.074000*%
%ADD12C,0.106614*%
%ADD13C,0.080000*%
%ADD14C,0.082000*%
%ADD15R,0.075000X0.075000*%
%ADD16R,0.080000X0.080000*%
%ADD17R,0.082000X0.082000*%
%ADD18C,0.024000*%
%LNCOPPER1*%
G90*
G70*
G54D10*
X340Y1088D03*
X350Y681D03*
G54D11*
X440Y1209D03*
X346Y1209D03*
X258Y1209D03*
X164Y1209D03*
G54D12*
X74Y1304D03*
X530Y1304D03*
G54D11*
X440Y1209D03*
X346Y1209D03*
X258Y1209D03*
X164Y1209D03*
G54D12*
X74Y1304D03*
X530Y1304D03*
G54D10*
X146Y939D03*
X546Y939D03*
X146Y1119D03*
X546Y1119D03*
X256Y169D03*
X356Y169D03*
G54D13*
X516Y199D03*
X516Y61D03*
X92Y84D03*
X92Y222D03*
X92Y360D03*
X92Y497D03*
X92Y635D03*
X92Y773D03*
G54D10*
X246Y629D03*
X546Y629D03*
X246Y529D03*
X546Y529D03*
X246Y429D03*
X546Y429D03*
X246Y329D03*
X546Y329D03*
X146Y1029D03*
X546Y1029D03*
G54D14*
X246Y839D03*
X544Y839D03*
X246Y739D03*
X544Y739D03*
G54D15*
X256Y169D03*
G54D16*
X516Y199D03*
X92Y84D03*
G54D15*
X246Y629D03*
G54D17*
X245Y839D03*
X245Y739D03*
G54D18*
X146Y1058D02*
X146Y1091D01*
D02*
X525Y548D02*
X468Y598D01*
X468Y598D02*
X468Y910D01*
X468Y910D02*
X520Y929D01*
D02*
X524Y347D02*
X420Y430D01*
X420Y430D02*
X420Y958D01*
X420Y958D02*
X522Y1015D01*
D02*
X524Y1101D02*
X324Y934D01*
X324Y934D02*
X324Y766D01*
X324Y766D02*
X277Y750D01*
D02*
X172Y953D02*
X228Y982D01*
X228Y982D02*
X254Y1180D01*
D02*
X226Y649D02*
X115Y752D01*
D02*
X123Y354D02*
X218Y335D01*
D02*
X111Y610D02*
X156Y550D01*
X156Y550D02*
X156Y430D01*
X156Y430D02*
X113Y383D01*
G36*
X200Y1182D02*
X200Y1180D01*
X198Y1180D01*
X198Y1178D01*
X196Y1178D01*
X196Y1176D01*
X194Y1176D01*
X194Y1174D01*
X192Y1174D01*
X192Y1172D01*
X190Y1172D01*
X190Y1170D01*
X186Y1170D01*
X186Y1168D01*
X182Y1168D01*
X182Y1148D01*
X184Y1148D01*
X184Y1144D01*
X186Y1144D01*
X186Y1142D01*
X188Y1142D01*
X188Y1138D01*
X190Y1138D01*
X190Y1134D01*
X192Y1134D01*
X192Y1128D01*
X194Y1128D01*
X194Y1112D01*
X192Y1112D01*
X192Y1106D01*
X190Y1106D01*
X190Y1100D01*
X188Y1100D01*
X188Y1098D01*
X186Y1098D01*
X186Y1094D01*
X184Y1094D01*
X184Y1092D01*
X182Y1092D01*
X182Y1090D01*
X180Y1090D01*
X180Y1086D01*
X178Y1086D01*
X178Y1084D01*
X176Y1084D01*
X176Y1064D01*
X178Y1064D01*
X178Y1062D01*
X180Y1062D01*
X180Y1060D01*
X182Y1060D01*
X182Y1058D01*
X184Y1058D01*
X184Y1054D01*
X186Y1054D01*
X186Y1052D01*
X188Y1052D01*
X188Y1048D01*
X190Y1048D01*
X190Y1044D01*
X192Y1044D01*
X192Y1038D01*
X214Y1038D01*
X214Y1052D01*
X216Y1052D01*
X216Y1068D01*
X218Y1068D01*
X218Y1084D01*
X220Y1084D01*
X220Y1098D01*
X222Y1098D01*
X222Y1114D01*
X224Y1114D01*
X224Y1128D01*
X226Y1128D01*
X226Y1144D01*
X228Y1144D01*
X228Y1176D01*
X226Y1176D01*
X226Y1178D01*
X224Y1178D01*
X224Y1180D01*
X222Y1180D01*
X222Y1182D01*
X200Y1182D01*
G37*
D02*
G36*
X40Y1386D02*
X40Y1366D01*
X544Y1366D01*
X544Y1364D01*
X568Y1364D01*
X568Y1386D01*
X40Y1386D01*
G37*
D02*
G36*
X40Y1366D02*
X40Y1364D01*
X60Y1364D01*
X60Y1366D01*
X40Y1366D01*
G37*
D02*
G36*
X88Y1366D02*
X88Y1364D01*
X94Y1364D01*
X94Y1362D01*
X98Y1362D01*
X98Y1360D01*
X102Y1360D01*
X102Y1358D01*
X106Y1358D01*
X106Y1356D01*
X110Y1356D01*
X110Y1354D01*
X112Y1354D01*
X112Y1352D01*
X114Y1352D01*
X114Y1350D01*
X116Y1350D01*
X116Y1348D01*
X118Y1348D01*
X118Y1346D01*
X120Y1346D01*
X120Y1344D01*
X122Y1344D01*
X122Y1342D01*
X124Y1342D01*
X124Y1340D01*
X394Y1340D01*
X394Y1338D01*
X402Y1338D01*
X402Y1336D01*
X406Y1336D01*
X406Y1334D01*
X408Y1334D01*
X408Y1332D01*
X410Y1332D01*
X410Y1330D01*
X412Y1330D01*
X412Y1328D01*
X414Y1328D01*
X414Y1326D01*
X416Y1326D01*
X416Y1324D01*
X418Y1324D01*
X418Y1320D01*
X420Y1320D01*
X420Y1316D01*
X422Y1316D01*
X422Y1300D01*
X420Y1300D01*
X420Y1294D01*
X418Y1294D01*
X418Y1292D01*
X416Y1292D01*
X416Y1288D01*
X414Y1288D01*
X414Y1286D01*
X412Y1286D01*
X412Y1284D01*
X410Y1284D01*
X410Y1282D01*
X406Y1282D01*
X406Y1280D01*
X402Y1280D01*
X402Y1278D01*
X398Y1278D01*
X398Y1276D01*
X474Y1276D01*
X474Y1278D01*
X472Y1278D01*
X472Y1284D01*
X470Y1284D01*
X470Y1290D01*
X468Y1290D01*
X468Y1318D01*
X470Y1318D01*
X470Y1324D01*
X472Y1324D01*
X472Y1328D01*
X474Y1328D01*
X474Y1332D01*
X476Y1332D01*
X476Y1336D01*
X478Y1336D01*
X478Y1338D01*
X480Y1338D01*
X480Y1342D01*
X482Y1342D01*
X482Y1344D01*
X484Y1344D01*
X484Y1346D01*
X486Y1346D01*
X486Y1348D01*
X488Y1348D01*
X488Y1350D01*
X490Y1350D01*
X490Y1352D01*
X492Y1352D01*
X492Y1354D01*
X496Y1354D01*
X496Y1356D01*
X498Y1356D01*
X498Y1358D01*
X502Y1358D01*
X502Y1360D01*
X506Y1360D01*
X506Y1362D01*
X510Y1362D01*
X510Y1364D01*
X516Y1364D01*
X516Y1366D01*
X88Y1366D01*
G37*
D02*
G36*
X126Y1340D02*
X126Y1336D01*
X128Y1336D01*
X128Y1332D01*
X130Y1332D01*
X130Y1328D01*
X132Y1328D01*
X132Y1324D01*
X134Y1324D01*
X134Y1318D01*
X136Y1318D01*
X136Y1290D01*
X134Y1290D01*
X134Y1284D01*
X132Y1284D01*
X132Y1278D01*
X130Y1278D01*
X130Y1276D01*
X206Y1276D01*
X206Y1278D01*
X202Y1278D01*
X202Y1280D01*
X198Y1280D01*
X198Y1282D01*
X194Y1282D01*
X194Y1284D01*
X192Y1284D01*
X192Y1286D01*
X190Y1286D01*
X190Y1288D01*
X188Y1288D01*
X188Y1292D01*
X186Y1292D01*
X186Y1296D01*
X184Y1296D01*
X184Y1300D01*
X182Y1300D01*
X182Y1316D01*
X184Y1316D01*
X184Y1320D01*
X186Y1320D01*
X186Y1324D01*
X188Y1324D01*
X188Y1326D01*
X190Y1326D01*
X190Y1328D01*
X192Y1328D01*
X192Y1330D01*
X194Y1330D01*
X194Y1332D01*
X196Y1332D01*
X196Y1334D01*
X198Y1334D01*
X198Y1336D01*
X202Y1336D01*
X202Y1338D01*
X210Y1338D01*
X210Y1340D01*
X126Y1340D01*
G37*
D02*
G36*
X216Y1340D02*
X216Y1338D01*
X224Y1338D01*
X224Y1336D01*
X228Y1336D01*
X228Y1334D01*
X232Y1334D01*
X232Y1332D01*
X234Y1332D01*
X234Y1330D01*
X236Y1330D01*
X236Y1328D01*
X238Y1328D01*
X238Y1326D01*
X240Y1326D01*
X240Y1322D01*
X242Y1322D01*
X242Y1318D01*
X244Y1318D01*
X244Y1308D01*
X246Y1308D01*
X246Y1306D01*
X244Y1306D01*
X244Y1298D01*
X242Y1298D01*
X242Y1294D01*
X240Y1294D01*
X240Y1290D01*
X238Y1290D01*
X238Y1288D01*
X236Y1288D01*
X236Y1286D01*
X234Y1286D01*
X234Y1284D01*
X232Y1284D01*
X232Y1282D01*
X230Y1282D01*
X230Y1280D01*
X226Y1280D01*
X226Y1278D01*
X220Y1278D01*
X220Y1276D01*
X384Y1276D01*
X384Y1278D01*
X378Y1278D01*
X378Y1280D01*
X374Y1280D01*
X374Y1282D01*
X372Y1282D01*
X372Y1284D01*
X370Y1284D01*
X370Y1286D01*
X368Y1286D01*
X368Y1288D01*
X366Y1288D01*
X366Y1290D01*
X364Y1290D01*
X364Y1294D01*
X362Y1294D01*
X362Y1298D01*
X360Y1298D01*
X360Y1318D01*
X362Y1318D01*
X362Y1322D01*
X364Y1322D01*
X364Y1324D01*
X366Y1324D01*
X366Y1328D01*
X368Y1328D01*
X368Y1330D01*
X370Y1330D01*
X370Y1332D01*
X372Y1332D01*
X372Y1334D01*
X376Y1334D01*
X376Y1336D01*
X380Y1336D01*
X380Y1338D01*
X388Y1338D01*
X388Y1340D01*
X216Y1340D01*
G37*
D02*
G36*
X130Y1276D02*
X130Y1274D01*
X474Y1274D01*
X474Y1276D01*
X130Y1276D01*
G37*
D02*
G36*
X130Y1276D02*
X130Y1274D01*
X474Y1274D01*
X474Y1276D01*
X130Y1276D01*
G37*
D02*
G36*
X130Y1276D02*
X130Y1274D01*
X474Y1274D01*
X474Y1276D01*
X130Y1276D01*
G37*
D02*
G36*
X128Y1274D02*
X128Y1272D01*
X126Y1272D01*
X126Y1268D01*
X124Y1268D01*
X124Y1266D01*
X122Y1266D01*
X122Y1264D01*
X120Y1264D01*
X120Y1262D01*
X118Y1262D01*
X118Y1260D01*
X116Y1260D01*
X116Y1258D01*
X114Y1258D01*
X114Y1256D01*
X448Y1256D01*
X448Y1254D01*
X454Y1254D01*
X454Y1252D01*
X458Y1252D01*
X458Y1250D01*
X462Y1250D01*
X462Y1248D01*
X466Y1248D01*
X466Y1246D01*
X468Y1246D01*
X468Y1244D01*
X470Y1244D01*
X470Y1242D01*
X472Y1242D01*
X472Y1240D01*
X522Y1240D01*
X522Y1242D01*
X514Y1242D01*
X514Y1244D01*
X508Y1244D01*
X508Y1246D01*
X504Y1246D01*
X504Y1248D01*
X500Y1248D01*
X500Y1250D01*
X498Y1250D01*
X498Y1252D01*
X494Y1252D01*
X494Y1254D01*
X492Y1254D01*
X492Y1256D01*
X490Y1256D01*
X490Y1258D01*
X488Y1258D01*
X488Y1260D01*
X486Y1260D01*
X486Y1262D01*
X484Y1262D01*
X484Y1264D01*
X482Y1264D01*
X482Y1266D01*
X480Y1266D01*
X480Y1268D01*
X478Y1268D01*
X478Y1272D01*
X476Y1272D01*
X476Y1274D01*
X128Y1274D01*
G37*
D02*
G36*
X112Y1256D02*
X112Y1254D01*
X110Y1254D01*
X110Y1252D01*
X108Y1252D01*
X108Y1250D01*
X104Y1250D01*
X104Y1248D01*
X100Y1248D01*
X100Y1246D01*
X96Y1246D01*
X96Y1244D01*
X90Y1244D01*
X90Y1242D01*
X82Y1242D01*
X82Y1240D01*
X132Y1240D01*
X132Y1242D01*
X134Y1242D01*
X134Y1244D01*
X136Y1244D01*
X136Y1246D01*
X138Y1246D01*
X138Y1248D01*
X142Y1248D01*
X142Y1250D01*
X146Y1250D01*
X146Y1252D01*
X150Y1252D01*
X150Y1254D01*
X156Y1254D01*
X156Y1256D01*
X112Y1256D01*
G37*
D02*
G36*
X174Y1256D02*
X174Y1254D01*
X180Y1254D01*
X180Y1252D01*
X184Y1252D01*
X184Y1250D01*
X186Y1250D01*
X186Y1248D01*
X190Y1248D01*
X190Y1246D01*
X192Y1246D01*
X192Y1244D01*
X194Y1244D01*
X194Y1242D01*
X196Y1242D01*
X196Y1240D01*
X198Y1240D01*
X198Y1238D01*
X200Y1238D01*
X200Y1236D01*
X222Y1236D01*
X222Y1238D01*
X224Y1238D01*
X224Y1240D01*
X226Y1240D01*
X226Y1242D01*
X228Y1242D01*
X228Y1244D01*
X230Y1244D01*
X230Y1246D01*
X232Y1246D01*
X232Y1248D01*
X236Y1248D01*
X236Y1250D01*
X238Y1250D01*
X238Y1252D01*
X242Y1252D01*
X242Y1254D01*
X248Y1254D01*
X248Y1256D01*
X174Y1256D01*
G37*
D02*
G36*
X266Y1256D02*
X266Y1254D01*
X272Y1254D01*
X272Y1252D01*
X276Y1252D01*
X276Y1250D01*
X280Y1250D01*
X280Y1248D01*
X284Y1248D01*
X284Y1246D01*
X286Y1246D01*
X286Y1244D01*
X288Y1244D01*
X288Y1242D01*
X290Y1242D01*
X290Y1240D01*
X292Y1240D01*
X292Y1238D01*
X312Y1238D01*
X312Y1240D01*
X314Y1240D01*
X314Y1242D01*
X316Y1242D01*
X316Y1244D01*
X318Y1244D01*
X318Y1246D01*
X320Y1246D01*
X320Y1248D01*
X324Y1248D01*
X324Y1250D01*
X328Y1250D01*
X328Y1252D01*
X332Y1252D01*
X332Y1254D01*
X338Y1254D01*
X338Y1256D01*
X266Y1256D01*
G37*
D02*
G36*
X356Y1256D02*
X356Y1254D01*
X362Y1254D01*
X362Y1252D01*
X366Y1252D01*
X366Y1250D01*
X368Y1250D01*
X368Y1248D01*
X372Y1248D01*
X372Y1246D01*
X374Y1246D01*
X374Y1244D01*
X376Y1244D01*
X376Y1242D01*
X380Y1242D01*
X380Y1238D01*
X382Y1238D01*
X382Y1236D01*
X404Y1236D01*
X404Y1238D01*
X406Y1238D01*
X406Y1240D01*
X408Y1240D01*
X408Y1242D01*
X410Y1242D01*
X410Y1244D01*
X412Y1244D01*
X412Y1246D01*
X414Y1246D01*
X414Y1248D01*
X418Y1248D01*
X418Y1250D01*
X420Y1250D01*
X420Y1252D01*
X426Y1252D01*
X426Y1254D01*
X430Y1254D01*
X430Y1256D01*
X356Y1256D01*
G37*
D02*
G36*
X548Y1244D02*
X548Y1242D01*
X538Y1242D01*
X538Y1240D01*
X568Y1240D01*
X568Y1244D01*
X548Y1244D01*
G37*
D02*
G36*
X40Y1242D02*
X40Y1240D01*
X66Y1240D01*
X66Y1242D01*
X40Y1242D01*
G37*
D02*
G36*
X40Y1240D02*
X40Y1238D01*
X130Y1238D01*
X130Y1240D01*
X40Y1240D01*
G37*
D02*
G36*
X40Y1240D02*
X40Y1238D01*
X130Y1238D01*
X130Y1240D01*
X40Y1240D01*
G37*
D02*
G36*
X474Y1240D02*
X474Y1238D01*
X568Y1238D01*
X568Y1240D01*
X474Y1240D01*
G37*
D02*
G36*
X474Y1240D02*
X474Y1238D01*
X568Y1238D01*
X568Y1240D01*
X474Y1240D01*
G37*
D02*
G36*
X40Y1238D02*
X40Y892D01*
X138Y892D01*
X138Y894D01*
X132Y894D01*
X132Y896D01*
X128Y896D01*
X128Y898D01*
X124Y898D01*
X124Y900D01*
X120Y900D01*
X120Y902D01*
X118Y902D01*
X118Y904D01*
X116Y904D01*
X116Y906D01*
X114Y906D01*
X114Y908D01*
X112Y908D01*
X112Y910D01*
X110Y910D01*
X110Y912D01*
X108Y912D01*
X108Y916D01*
X106Y916D01*
X106Y918D01*
X104Y918D01*
X104Y922D01*
X102Y922D01*
X102Y928D01*
X100Y928D01*
X100Y938D01*
X98Y938D01*
X98Y940D01*
X100Y940D01*
X100Y950D01*
X102Y950D01*
X102Y956D01*
X104Y956D01*
X104Y960D01*
X106Y960D01*
X106Y964D01*
X108Y964D01*
X108Y966D01*
X110Y966D01*
X110Y968D01*
X112Y968D01*
X112Y970D01*
X114Y970D01*
X114Y972D01*
X116Y972D01*
X116Y974D01*
X118Y974D01*
X118Y994D01*
X116Y994D01*
X116Y996D01*
X114Y996D01*
X114Y998D01*
X112Y998D01*
X112Y1000D01*
X110Y1000D01*
X110Y1002D01*
X108Y1002D01*
X108Y1006D01*
X106Y1006D01*
X106Y1008D01*
X104Y1008D01*
X104Y1012D01*
X102Y1012D01*
X102Y1018D01*
X100Y1018D01*
X100Y1028D01*
X98Y1028D01*
X98Y1030D01*
X100Y1030D01*
X100Y1040D01*
X102Y1040D01*
X102Y1046D01*
X104Y1046D01*
X104Y1050D01*
X106Y1050D01*
X106Y1054D01*
X108Y1054D01*
X108Y1056D01*
X110Y1056D01*
X110Y1058D01*
X112Y1058D01*
X112Y1060D01*
X114Y1060D01*
X114Y1062D01*
X116Y1062D01*
X116Y1064D01*
X118Y1064D01*
X118Y1084D01*
X116Y1084D01*
X116Y1086D01*
X114Y1086D01*
X114Y1088D01*
X112Y1088D01*
X112Y1090D01*
X110Y1090D01*
X110Y1092D01*
X108Y1092D01*
X108Y1096D01*
X106Y1096D01*
X106Y1098D01*
X104Y1098D01*
X104Y1102D01*
X102Y1102D01*
X102Y1108D01*
X100Y1108D01*
X100Y1118D01*
X98Y1118D01*
X98Y1120D01*
X100Y1120D01*
X100Y1130D01*
X102Y1130D01*
X102Y1136D01*
X104Y1136D01*
X104Y1140D01*
X106Y1140D01*
X106Y1144D01*
X108Y1144D01*
X108Y1146D01*
X110Y1146D01*
X110Y1148D01*
X112Y1148D01*
X112Y1150D01*
X114Y1150D01*
X114Y1152D01*
X116Y1152D01*
X116Y1154D01*
X118Y1154D01*
X118Y1156D01*
X120Y1156D01*
X120Y1158D01*
X122Y1158D01*
X122Y1160D01*
X126Y1160D01*
X126Y1162D01*
X128Y1162D01*
X128Y1182D01*
X126Y1182D01*
X126Y1186D01*
X124Y1186D01*
X124Y1190D01*
X122Y1190D01*
X122Y1192D01*
X120Y1192D01*
X120Y1198D01*
X118Y1198D01*
X118Y1220D01*
X120Y1220D01*
X120Y1226D01*
X122Y1226D01*
X122Y1230D01*
X124Y1230D01*
X124Y1232D01*
X126Y1232D01*
X126Y1236D01*
X128Y1236D01*
X128Y1238D01*
X40Y1238D01*
G37*
D02*
G36*
X476Y1238D02*
X476Y1236D01*
X478Y1236D01*
X478Y1232D01*
X480Y1232D01*
X480Y1230D01*
X482Y1230D01*
X482Y1226D01*
X484Y1226D01*
X484Y1220D01*
X486Y1220D01*
X486Y1198D01*
X484Y1198D01*
X484Y1192D01*
X482Y1192D01*
X482Y1188D01*
X480Y1188D01*
X480Y1186D01*
X478Y1186D01*
X478Y1182D01*
X476Y1182D01*
X476Y1180D01*
X474Y1180D01*
X474Y1178D01*
X472Y1178D01*
X472Y1176D01*
X470Y1176D01*
X470Y1174D01*
X468Y1174D01*
X468Y1172D01*
X464Y1172D01*
X464Y1170D01*
X462Y1170D01*
X462Y1168D01*
X458Y1168D01*
X458Y1166D01*
X454Y1166D01*
X454Y1164D01*
X448Y1164D01*
X448Y1162D01*
X530Y1162D01*
X530Y1164D01*
X536Y1164D01*
X536Y1166D01*
X568Y1166D01*
X568Y1238D01*
X476Y1238D01*
G37*
D02*
G36*
X382Y1182D02*
X382Y1180D01*
X380Y1180D01*
X380Y1178D01*
X378Y1178D01*
X378Y1176D01*
X376Y1176D01*
X376Y1174D01*
X374Y1174D01*
X374Y1172D01*
X372Y1172D01*
X372Y1170D01*
X368Y1170D01*
X368Y1168D01*
X364Y1168D01*
X364Y1166D01*
X360Y1166D01*
X360Y1164D01*
X354Y1164D01*
X354Y1162D01*
X432Y1162D01*
X432Y1164D01*
X426Y1164D01*
X426Y1166D01*
X422Y1166D01*
X422Y1168D01*
X418Y1168D01*
X418Y1170D01*
X414Y1170D01*
X414Y1172D01*
X412Y1172D01*
X412Y1174D01*
X410Y1174D01*
X410Y1176D01*
X408Y1176D01*
X408Y1178D01*
X406Y1178D01*
X406Y1180D01*
X404Y1180D01*
X404Y1182D01*
X382Y1182D01*
G37*
D02*
G36*
X292Y1180D02*
X292Y1178D01*
X290Y1178D01*
X290Y1176D01*
X288Y1176D01*
X288Y1174D01*
X286Y1174D01*
X286Y1172D01*
X282Y1172D01*
X282Y1170D01*
X280Y1170D01*
X280Y1168D01*
X276Y1168D01*
X276Y1166D01*
X274Y1166D01*
X274Y1162D01*
X340Y1162D01*
X340Y1164D01*
X332Y1164D01*
X332Y1166D01*
X328Y1166D01*
X328Y1168D01*
X324Y1168D01*
X324Y1170D01*
X322Y1170D01*
X322Y1172D01*
X318Y1172D01*
X318Y1174D01*
X316Y1174D01*
X316Y1176D01*
X314Y1176D01*
X314Y1178D01*
X312Y1178D01*
X312Y1180D01*
X292Y1180D01*
G37*
D02*
G36*
X274Y1162D02*
X274Y1160D01*
X526Y1160D01*
X526Y1162D01*
X274Y1162D01*
G37*
D02*
G36*
X274Y1162D02*
X274Y1160D01*
X526Y1160D01*
X526Y1162D01*
X274Y1162D01*
G37*
D02*
G36*
X274Y1162D02*
X274Y1160D01*
X526Y1160D01*
X526Y1162D01*
X274Y1162D01*
G37*
D02*
G36*
X274Y1160D02*
X274Y1156D01*
X272Y1156D01*
X272Y1142D01*
X270Y1142D01*
X270Y1126D01*
X268Y1126D01*
X268Y1110D01*
X266Y1110D01*
X266Y1096D01*
X264Y1096D01*
X264Y1080D01*
X262Y1080D01*
X262Y1064D01*
X260Y1064D01*
X260Y1050D01*
X258Y1050D01*
X258Y1034D01*
X256Y1034D01*
X256Y1018D01*
X254Y1018D01*
X254Y1004D01*
X252Y1004D01*
X252Y988D01*
X250Y988D01*
X250Y976D01*
X248Y976D01*
X248Y972D01*
X246Y972D01*
X246Y968D01*
X244Y968D01*
X244Y966D01*
X242Y966D01*
X242Y964D01*
X238Y964D01*
X238Y962D01*
X236Y962D01*
X236Y960D01*
X232Y960D01*
X232Y958D01*
X228Y958D01*
X228Y956D01*
X224Y956D01*
X224Y954D01*
X220Y954D01*
X220Y952D01*
X216Y952D01*
X216Y950D01*
X212Y950D01*
X212Y948D01*
X208Y948D01*
X208Y946D01*
X204Y946D01*
X204Y944D01*
X200Y944D01*
X200Y942D01*
X198Y942D01*
X198Y940D01*
X194Y940D01*
X194Y932D01*
X192Y932D01*
X192Y926D01*
X190Y926D01*
X190Y920D01*
X188Y920D01*
X188Y918D01*
X186Y918D01*
X186Y914D01*
X184Y914D01*
X184Y912D01*
X182Y912D01*
X182Y910D01*
X180Y910D01*
X180Y906D01*
X178Y906D01*
X178Y904D01*
X174Y904D01*
X174Y902D01*
X172Y902D01*
X172Y900D01*
X170Y900D01*
X170Y898D01*
X166Y898D01*
X166Y896D01*
X162Y896D01*
X162Y894D01*
X156Y894D01*
X156Y892D01*
X302Y892D01*
X302Y940D01*
X304Y940D01*
X304Y946D01*
X306Y946D01*
X306Y948D01*
X308Y948D01*
X308Y950D01*
X310Y950D01*
X310Y952D01*
X312Y952D01*
X312Y954D01*
X314Y954D01*
X314Y956D01*
X318Y956D01*
X318Y958D01*
X320Y958D01*
X320Y960D01*
X322Y960D01*
X322Y962D01*
X324Y962D01*
X324Y964D01*
X326Y964D01*
X326Y966D01*
X330Y966D01*
X330Y968D01*
X332Y968D01*
X332Y970D01*
X334Y970D01*
X334Y972D01*
X336Y972D01*
X336Y974D01*
X338Y974D01*
X338Y976D01*
X342Y976D01*
X342Y978D01*
X344Y978D01*
X344Y980D01*
X346Y980D01*
X346Y982D01*
X348Y982D01*
X348Y984D01*
X350Y984D01*
X350Y986D01*
X354Y986D01*
X354Y988D01*
X356Y988D01*
X356Y990D01*
X358Y990D01*
X358Y992D01*
X360Y992D01*
X360Y994D01*
X362Y994D01*
X362Y996D01*
X366Y996D01*
X366Y998D01*
X368Y998D01*
X368Y1000D01*
X370Y1000D01*
X370Y1002D01*
X372Y1002D01*
X372Y1004D01*
X374Y1004D01*
X374Y1006D01*
X378Y1006D01*
X378Y1008D01*
X380Y1008D01*
X380Y1010D01*
X382Y1010D01*
X382Y1012D01*
X384Y1012D01*
X384Y1014D01*
X386Y1014D01*
X386Y1016D01*
X390Y1016D01*
X390Y1018D01*
X392Y1018D01*
X392Y1020D01*
X394Y1020D01*
X394Y1022D01*
X396Y1022D01*
X396Y1024D01*
X398Y1024D01*
X398Y1026D01*
X402Y1026D01*
X402Y1028D01*
X404Y1028D01*
X404Y1030D01*
X406Y1030D01*
X406Y1032D01*
X408Y1032D01*
X408Y1034D01*
X410Y1034D01*
X410Y1036D01*
X414Y1036D01*
X414Y1038D01*
X416Y1038D01*
X416Y1040D01*
X418Y1040D01*
X418Y1042D01*
X420Y1042D01*
X420Y1044D01*
X422Y1044D01*
X422Y1046D01*
X426Y1046D01*
X426Y1048D01*
X428Y1048D01*
X428Y1050D01*
X430Y1050D01*
X430Y1052D01*
X432Y1052D01*
X432Y1054D01*
X434Y1054D01*
X434Y1056D01*
X438Y1056D01*
X438Y1058D01*
X440Y1058D01*
X440Y1060D01*
X442Y1060D01*
X442Y1062D01*
X444Y1062D01*
X444Y1064D01*
X446Y1064D01*
X446Y1066D01*
X450Y1066D01*
X450Y1068D01*
X452Y1068D01*
X452Y1070D01*
X454Y1070D01*
X454Y1072D01*
X456Y1072D01*
X456Y1074D01*
X458Y1074D01*
X458Y1076D01*
X462Y1076D01*
X462Y1078D01*
X464Y1078D01*
X464Y1080D01*
X466Y1080D01*
X466Y1082D01*
X468Y1082D01*
X468Y1084D01*
X470Y1084D01*
X470Y1086D01*
X474Y1086D01*
X474Y1088D01*
X476Y1088D01*
X476Y1090D01*
X478Y1090D01*
X478Y1092D01*
X480Y1092D01*
X480Y1094D01*
X482Y1094D01*
X482Y1096D01*
X486Y1096D01*
X486Y1098D01*
X488Y1098D01*
X488Y1100D01*
X490Y1100D01*
X490Y1102D01*
X492Y1102D01*
X492Y1104D01*
X494Y1104D01*
X494Y1106D01*
X498Y1106D01*
X498Y1120D01*
X500Y1120D01*
X500Y1130D01*
X502Y1130D01*
X502Y1136D01*
X504Y1136D01*
X504Y1140D01*
X506Y1140D01*
X506Y1144D01*
X508Y1144D01*
X508Y1146D01*
X510Y1146D01*
X510Y1148D01*
X512Y1148D01*
X512Y1150D01*
X514Y1150D01*
X514Y1152D01*
X516Y1152D01*
X516Y1154D01*
X518Y1154D01*
X518Y1156D01*
X520Y1156D01*
X520Y1158D01*
X522Y1158D01*
X522Y1160D01*
X274Y1160D01*
G37*
D02*
G36*
X40Y892D02*
X40Y890D01*
X302Y890D01*
X302Y892D01*
X40Y892D01*
G37*
D02*
G36*
X40Y892D02*
X40Y890D01*
X302Y890D01*
X302Y892D01*
X40Y892D01*
G37*
D02*
G36*
X40Y890D02*
X40Y822D01*
X104Y822D01*
X104Y820D01*
X110Y820D01*
X110Y818D01*
X114Y818D01*
X114Y816D01*
X116Y816D01*
X116Y814D01*
X120Y814D01*
X120Y812D01*
X122Y812D01*
X122Y810D01*
X124Y810D01*
X124Y808D01*
X126Y808D01*
X126Y806D01*
X128Y806D01*
X128Y804D01*
X130Y804D01*
X130Y802D01*
X132Y802D01*
X132Y800D01*
X134Y800D01*
X134Y796D01*
X136Y796D01*
X136Y792D01*
X138Y792D01*
X138Y788D01*
X140Y788D01*
X140Y782D01*
X142Y782D01*
X142Y756D01*
X144Y756D01*
X144Y754D01*
X146Y754D01*
X146Y752D01*
X148Y752D01*
X148Y750D01*
X150Y750D01*
X150Y748D01*
X152Y748D01*
X152Y746D01*
X154Y746D01*
X154Y744D01*
X156Y744D01*
X156Y742D01*
X158Y742D01*
X158Y740D01*
X160Y740D01*
X160Y738D01*
X164Y738D01*
X164Y736D01*
X166Y736D01*
X166Y734D01*
X168Y734D01*
X168Y732D01*
X170Y732D01*
X170Y730D01*
X172Y730D01*
X172Y728D01*
X174Y728D01*
X174Y726D01*
X194Y726D01*
X194Y890D01*
X40Y890D01*
G37*
D02*
G36*
X40Y822D02*
X40Y808D01*
X60Y808D01*
X60Y810D01*
X62Y810D01*
X62Y812D01*
X64Y812D01*
X64Y814D01*
X68Y814D01*
X68Y816D01*
X72Y816D01*
X72Y818D01*
X74Y818D01*
X74Y820D01*
X80Y820D01*
X80Y822D01*
X40Y822D01*
G37*
D02*
G36*
X484Y970D02*
X484Y968D01*
X480Y968D01*
X480Y966D01*
X478Y966D01*
X478Y964D01*
X474Y964D01*
X474Y962D01*
X470Y962D01*
X470Y960D01*
X466Y960D01*
X466Y958D01*
X464Y958D01*
X464Y956D01*
X460Y956D01*
X460Y954D01*
X456Y954D01*
X456Y952D01*
X452Y952D01*
X452Y950D01*
X448Y950D01*
X448Y948D01*
X446Y948D01*
X446Y946D01*
X442Y946D01*
X442Y930D01*
X462Y930D01*
X462Y932D01*
X466Y932D01*
X466Y934D01*
X472Y934D01*
X472Y936D01*
X478Y936D01*
X478Y938D01*
X482Y938D01*
X482Y940D01*
X488Y940D01*
X488Y942D01*
X494Y942D01*
X494Y944D01*
X498Y944D01*
X498Y946D01*
X500Y946D01*
X500Y950D01*
X502Y950D01*
X502Y956D01*
X504Y956D01*
X504Y960D01*
X506Y960D01*
X506Y970D01*
X484Y970D01*
G37*
D02*
G36*
X442Y574D02*
X442Y440D01*
X444Y440D01*
X444Y438D01*
X446Y438D01*
X446Y436D01*
X450Y436D01*
X450Y434D01*
X452Y434D01*
X452Y432D01*
X454Y432D01*
X454Y430D01*
X456Y430D01*
X456Y428D01*
X460Y428D01*
X460Y426D01*
X462Y426D01*
X462Y424D01*
X464Y424D01*
X464Y422D01*
X466Y422D01*
X466Y420D01*
X470Y420D01*
X470Y418D01*
X472Y418D01*
X472Y416D01*
X474Y416D01*
X474Y414D01*
X476Y414D01*
X476Y412D01*
X480Y412D01*
X480Y410D01*
X482Y410D01*
X482Y408D01*
X484Y408D01*
X484Y406D01*
X504Y406D01*
X504Y412D01*
X502Y412D01*
X502Y418D01*
X500Y418D01*
X500Y428D01*
X498Y428D01*
X498Y430D01*
X500Y430D01*
X500Y440D01*
X502Y440D01*
X502Y446D01*
X504Y446D01*
X504Y450D01*
X506Y450D01*
X506Y454D01*
X508Y454D01*
X508Y456D01*
X510Y456D01*
X510Y458D01*
X512Y458D01*
X512Y460D01*
X514Y460D01*
X514Y462D01*
X516Y462D01*
X516Y464D01*
X518Y464D01*
X518Y466D01*
X520Y466D01*
X520Y468D01*
X522Y468D01*
X522Y470D01*
X524Y470D01*
X524Y490D01*
X520Y490D01*
X520Y492D01*
X518Y492D01*
X518Y494D01*
X516Y494D01*
X516Y496D01*
X514Y496D01*
X514Y498D01*
X512Y498D01*
X512Y500D01*
X510Y500D01*
X510Y502D01*
X508Y502D01*
X508Y506D01*
X506Y506D01*
X506Y508D01*
X504Y508D01*
X504Y512D01*
X502Y512D01*
X502Y518D01*
X500Y518D01*
X500Y528D01*
X498Y528D01*
X498Y544D01*
X496Y544D01*
X496Y546D01*
X492Y546D01*
X492Y548D01*
X490Y548D01*
X490Y550D01*
X488Y550D01*
X488Y552D01*
X486Y552D01*
X486Y554D01*
X484Y554D01*
X484Y556D01*
X482Y556D01*
X482Y558D01*
X480Y558D01*
X480Y560D01*
X476Y560D01*
X476Y562D01*
X474Y562D01*
X474Y564D01*
X472Y564D01*
X472Y566D01*
X470Y566D01*
X470Y568D01*
X468Y568D01*
X468Y570D01*
X466Y570D01*
X466Y572D01*
X464Y572D01*
X464Y574D01*
X442Y574D01*
G37*
D02*
G36*
X378Y952D02*
X378Y950D01*
X376Y950D01*
X376Y948D01*
X374Y948D01*
X374Y946D01*
X372Y946D01*
X372Y944D01*
X370Y944D01*
X370Y942D01*
X366Y942D01*
X366Y940D01*
X364Y940D01*
X364Y938D01*
X362Y938D01*
X362Y936D01*
X360Y936D01*
X360Y934D01*
X358Y934D01*
X358Y932D01*
X354Y932D01*
X354Y930D01*
X352Y930D01*
X352Y928D01*
X350Y928D01*
X350Y926D01*
X348Y926D01*
X348Y924D01*
X346Y924D01*
X346Y760D01*
X344Y760D01*
X344Y756D01*
X342Y756D01*
X342Y752D01*
X340Y752D01*
X340Y750D01*
X338Y750D01*
X338Y748D01*
X334Y748D01*
X334Y746D01*
X330Y746D01*
X330Y744D01*
X324Y744D01*
X324Y742D01*
X318Y742D01*
X318Y740D01*
X314Y740D01*
X314Y738D01*
X308Y738D01*
X308Y736D01*
X302Y736D01*
X302Y734D01*
X296Y734D01*
X296Y688D01*
X294Y688D01*
X294Y582D01*
X278Y582D01*
X278Y562D01*
X280Y562D01*
X280Y560D01*
X282Y560D01*
X282Y558D01*
X284Y558D01*
X284Y554D01*
X286Y554D01*
X286Y552D01*
X288Y552D01*
X288Y548D01*
X290Y548D01*
X290Y544D01*
X292Y544D01*
X292Y538D01*
X294Y538D01*
X294Y522D01*
X292Y522D01*
X292Y516D01*
X290Y516D01*
X290Y510D01*
X288Y510D01*
X288Y508D01*
X286Y508D01*
X286Y504D01*
X284Y504D01*
X284Y502D01*
X282Y502D01*
X282Y500D01*
X280Y500D01*
X280Y496D01*
X278Y496D01*
X278Y494D01*
X274Y494D01*
X274Y492D01*
X272Y492D01*
X272Y490D01*
X270Y490D01*
X270Y468D01*
X272Y468D01*
X272Y466D01*
X276Y466D01*
X276Y464D01*
X278Y464D01*
X278Y462D01*
X280Y462D01*
X280Y460D01*
X282Y460D01*
X282Y458D01*
X284Y458D01*
X284Y454D01*
X286Y454D01*
X286Y452D01*
X288Y452D01*
X288Y448D01*
X290Y448D01*
X290Y444D01*
X292Y444D01*
X292Y438D01*
X294Y438D01*
X294Y422D01*
X292Y422D01*
X292Y416D01*
X290Y416D01*
X290Y410D01*
X288Y410D01*
X288Y408D01*
X286Y408D01*
X286Y404D01*
X284Y404D01*
X284Y402D01*
X282Y402D01*
X282Y400D01*
X280Y400D01*
X280Y396D01*
X278Y396D01*
X278Y394D01*
X274Y394D01*
X274Y392D01*
X272Y392D01*
X272Y390D01*
X270Y390D01*
X270Y368D01*
X272Y368D01*
X272Y366D01*
X276Y366D01*
X276Y364D01*
X278Y364D01*
X278Y362D01*
X280Y362D01*
X280Y360D01*
X282Y360D01*
X282Y358D01*
X284Y358D01*
X284Y354D01*
X286Y354D01*
X286Y352D01*
X288Y352D01*
X288Y348D01*
X290Y348D01*
X290Y344D01*
X292Y344D01*
X292Y338D01*
X294Y338D01*
X294Y322D01*
X292Y322D01*
X292Y316D01*
X290Y316D01*
X290Y310D01*
X288Y310D01*
X288Y308D01*
X286Y308D01*
X286Y304D01*
X284Y304D01*
X284Y302D01*
X282Y302D01*
X282Y300D01*
X280Y300D01*
X280Y296D01*
X278Y296D01*
X278Y294D01*
X274Y294D01*
X274Y292D01*
X272Y292D01*
X272Y290D01*
X270Y290D01*
X270Y288D01*
X266Y288D01*
X266Y286D01*
X262Y286D01*
X262Y284D01*
X256Y284D01*
X256Y282D01*
X538Y282D01*
X538Y284D01*
X532Y284D01*
X532Y286D01*
X528Y286D01*
X528Y288D01*
X524Y288D01*
X524Y290D01*
X520Y290D01*
X520Y292D01*
X518Y292D01*
X518Y294D01*
X516Y294D01*
X516Y296D01*
X514Y296D01*
X514Y298D01*
X512Y298D01*
X512Y300D01*
X510Y300D01*
X510Y302D01*
X508Y302D01*
X508Y306D01*
X506Y306D01*
X506Y308D01*
X504Y308D01*
X504Y312D01*
X502Y312D01*
X502Y318D01*
X500Y318D01*
X500Y328D01*
X498Y328D01*
X498Y340D01*
X496Y340D01*
X496Y342D01*
X494Y342D01*
X494Y344D01*
X492Y344D01*
X492Y346D01*
X488Y346D01*
X488Y348D01*
X486Y348D01*
X486Y350D01*
X484Y350D01*
X484Y352D01*
X482Y352D01*
X482Y354D01*
X478Y354D01*
X478Y356D01*
X476Y356D01*
X476Y358D01*
X474Y358D01*
X474Y360D01*
X472Y360D01*
X472Y362D01*
X468Y362D01*
X468Y364D01*
X466Y364D01*
X466Y366D01*
X464Y366D01*
X464Y368D01*
X462Y368D01*
X462Y370D01*
X458Y370D01*
X458Y372D01*
X456Y372D01*
X456Y374D01*
X454Y374D01*
X454Y376D01*
X452Y376D01*
X452Y378D01*
X448Y378D01*
X448Y380D01*
X446Y380D01*
X446Y382D01*
X444Y382D01*
X444Y384D01*
X442Y384D01*
X442Y386D01*
X438Y386D01*
X438Y388D01*
X436Y388D01*
X436Y390D01*
X434Y390D01*
X434Y392D01*
X432Y392D01*
X432Y394D01*
X428Y394D01*
X428Y396D01*
X426Y396D01*
X426Y398D01*
X424Y398D01*
X424Y400D01*
X422Y400D01*
X422Y402D01*
X418Y402D01*
X418Y404D01*
X416Y404D01*
X416Y406D01*
X414Y406D01*
X414Y408D01*
X412Y408D01*
X412Y410D01*
X408Y410D01*
X408Y412D01*
X406Y412D01*
X406Y414D01*
X404Y414D01*
X404Y416D01*
X402Y416D01*
X402Y420D01*
X400Y420D01*
X400Y424D01*
X398Y424D01*
X398Y952D01*
X378Y952D01*
G37*
D02*
G36*
X40Y738D02*
X40Y722D01*
X90Y722D01*
X90Y724D01*
X80Y724D01*
X80Y726D01*
X74Y726D01*
X74Y728D01*
X70Y728D01*
X70Y730D01*
X68Y730D01*
X68Y732D01*
X64Y732D01*
X64Y734D01*
X62Y734D01*
X62Y736D01*
X60Y736D01*
X60Y738D01*
X40Y738D01*
G37*
D02*
G36*
X94Y724D02*
X94Y722D01*
X114Y722D01*
X114Y724D01*
X94Y724D01*
G37*
D02*
G36*
X40Y722D02*
X40Y720D01*
X116Y720D01*
X116Y722D01*
X40Y722D01*
G37*
D02*
G36*
X40Y722D02*
X40Y720D01*
X116Y720D01*
X116Y722D01*
X40Y722D01*
G37*
D02*
G36*
X40Y720D02*
X40Y686D01*
X94Y686D01*
X94Y684D01*
X104Y684D01*
X104Y682D01*
X110Y682D01*
X110Y680D01*
X114Y680D01*
X114Y678D01*
X116Y678D01*
X116Y676D01*
X120Y676D01*
X120Y674D01*
X122Y674D01*
X122Y672D01*
X124Y672D01*
X124Y670D01*
X126Y670D01*
X126Y668D01*
X128Y668D01*
X128Y666D01*
X130Y666D01*
X130Y664D01*
X132Y664D01*
X132Y662D01*
X134Y662D01*
X134Y658D01*
X136Y658D01*
X136Y654D01*
X138Y654D01*
X138Y650D01*
X140Y650D01*
X140Y644D01*
X142Y644D01*
X142Y626D01*
X140Y626D01*
X140Y620D01*
X138Y620D01*
X138Y616D01*
X136Y616D01*
X136Y612D01*
X134Y612D01*
X134Y608D01*
X132Y608D01*
X132Y606D01*
X130Y606D01*
X130Y604D01*
X128Y604D01*
X128Y602D01*
X126Y602D01*
X126Y600D01*
X124Y600D01*
X124Y598D01*
X122Y598D01*
X122Y596D01*
X120Y596D01*
X120Y594D01*
X116Y594D01*
X116Y592D01*
X114Y592D01*
X114Y590D01*
X110Y590D01*
X110Y588D01*
X104Y588D01*
X104Y586D01*
X198Y586D01*
X198Y646D01*
X196Y646D01*
X196Y648D01*
X192Y648D01*
X192Y650D01*
X190Y650D01*
X190Y652D01*
X188Y652D01*
X188Y654D01*
X186Y654D01*
X186Y656D01*
X184Y656D01*
X184Y658D01*
X182Y658D01*
X182Y660D01*
X180Y660D01*
X180Y662D01*
X178Y662D01*
X178Y664D01*
X176Y664D01*
X176Y666D01*
X174Y666D01*
X174Y668D01*
X172Y668D01*
X172Y670D01*
X170Y670D01*
X170Y672D01*
X168Y672D01*
X168Y674D01*
X166Y674D01*
X166Y676D01*
X162Y676D01*
X162Y678D01*
X160Y678D01*
X160Y680D01*
X158Y680D01*
X158Y682D01*
X156Y682D01*
X156Y684D01*
X154Y684D01*
X154Y686D01*
X152Y686D01*
X152Y688D01*
X150Y688D01*
X150Y690D01*
X148Y690D01*
X148Y692D01*
X146Y692D01*
X146Y694D01*
X144Y694D01*
X144Y696D01*
X142Y696D01*
X142Y698D01*
X140Y698D01*
X140Y700D01*
X138Y700D01*
X138Y702D01*
X134Y702D01*
X134Y704D01*
X132Y704D01*
X132Y706D01*
X130Y706D01*
X130Y708D01*
X128Y708D01*
X128Y710D01*
X126Y710D01*
X126Y712D01*
X124Y712D01*
X124Y714D01*
X122Y714D01*
X122Y716D01*
X120Y716D01*
X120Y718D01*
X118Y718D01*
X118Y720D01*
X40Y720D01*
G37*
D02*
G36*
X40Y686D02*
X40Y670D01*
X60Y670D01*
X60Y672D01*
X62Y672D01*
X62Y674D01*
X64Y674D01*
X64Y676D01*
X68Y676D01*
X68Y678D01*
X70Y678D01*
X70Y680D01*
X74Y680D01*
X74Y682D01*
X80Y682D01*
X80Y684D01*
X90Y684D01*
X90Y686D01*
X40Y686D01*
G37*
D02*
G36*
X40Y600D02*
X40Y586D01*
X80Y586D01*
X80Y588D01*
X74Y588D01*
X74Y590D01*
X72Y590D01*
X72Y592D01*
X68Y592D01*
X68Y594D01*
X64Y594D01*
X64Y596D01*
X62Y596D01*
X62Y598D01*
X60Y598D01*
X60Y600D01*
X40Y600D01*
G37*
D02*
G36*
X40Y586D02*
X40Y584D01*
X198Y584D01*
X198Y586D01*
X40Y586D01*
G37*
D02*
G36*
X40Y586D02*
X40Y584D01*
X198Y584D01*
X198Y586D01*
X40Y586D01*
G37*
D02*
G36*
X40Y584D02*
X40Y548D01*
X96Y548D01*
X96Y546D01*
X106Y546D01*
X106Y544D01*
X110Y544D01*
X110Y542D01*
X114Y542D01*
X114Y540D01*
X118Y540D01*
X118Y538D01*
X120Y538D01*
X120Y536D01*
X122Y536D01*
X122Y534D01*
X124Y534D01*
X124Y532D01*
X128Y532D01*
X128Y528D01*
X130Y528D01*
X130Y526D01*
X132Y526D01*
X132Y524D01*
X134Y524D01*
X134Y520D01*
X136Y520D01*
X136Y518D01*
X138Y518D01*
X138Y512D01*
X140Y512D01*
X140Y506D01*
X142Y506D01*
X142Y488D01*
X140Y488D01*
X140Y482D01*
X138Y482D01*
X138Y478D01*
X136Y478D01*
X136Y474D01*
X134Y474D01*
X134Y470D01*
X132Y470D01*
X132Y468D01*
X130Y468D01*
X130Y466D01*
X128Y466D01*
X128Y464D01*
X126Y464D01*
X126Y462D01*
X124Y462D01*
X124Y460D01*
X122Y460D01*
X122Y458D01*
X120Y458D01*
X120Y456D01*
X116Y456D01*
X116Y454D01*
X112Y454D01*
X112Y452D01*
X108Y452D01*
X108Y450D01*
X104Y450D01*
X104Y448D01*
X204Y448D01*
X204Y450D01*
X206Y450D01*
X206Y454D01*
X208Y454D01*
X208Y456D01*
X210Y456D01*
X210Y458D01*
X212Y458D01*
X212Y460D01*
X214Y460D01*
X214Y462D01*
X216Y462D01*
X216Y464D01*
X218Y464D01*
X218Y466D01*
X220Y466D01*
X220Y468D01*
X222Y468D01*
X222Y470D01*
X224Y470D01*
X224Y490D01*
X220Y490D01*
X220Y492D01*
X218Y492D01*
X218Y494D01*
X216Y494D01*
X216Y496D01*
X214Y496D01*
X214Y498D01*
X212Y498D01*
X212Y500D01*
X210Y500D01*
X210Y502D01*
X208Y502D01*
X208Y506D01*
X206Y506D01*
X206Y508D01*
X204Y508D01*
X204Y512D01*
X202Y512D01*
X202Y518D01*
X200Y518D01*
X200Y528D01*
X198Y528D01*
X198Y530D01*
X200Y530D01*
X200Y540D01*
X202Y540D01*
X202Y546D01*
X204Y546D01*
X204Y550D01*
X206Y550D01*
X206Y554D01*
X208Y554D01*
X208Y556D01*
X210Y556D01*
X210Y558D01*
X212Y558D01*
X212Y560D01*
X214Y560D01*
X214Y562D01*
X216Y562D01*
X216Y582D01*
X198Y582D01*
X198Y584D01*
X40Y584D01*
G37*
D02*
G36*
X40Y548D02*
X40Y532D01*
X60Y532D01*
X60Y534D01*
X62Y534D01*
X62Y536D01*
X64Y536D01*
X64Y538D01*
X68Y538D01*
X68Y540D01*
X70Y540D01*
X70Y542D01*
X74Y542D01*
X74Y544D01*
X78Y544D01*
X78Y546D01*
X88Y546D01*
X88Y548D01*
X40Y548D01*
G37*
D02*
G36*
X40Y462D02*
X40Y448D01*
X82Y448D01*
X82Y450D01*
X76Y450D01*
X76Y452D01*
X72Y452D01*
X72Y454D01*
X68Y454D01*
X68Y456D01*
X64Y456D01*
X64Y458D01*
X62Y458D01*
X62Y460D01*
X60Y460D01*
X60Y462D01*
X40Y462D01*
G37*
D02*
G36*
X40Y448D02*
X40Y446D01*
X204Y446D01*
X204Y448D01*
X40Y448D01*
G37*
D02*
G36*
X40Y448D02*
X40Y446D01*
X204Y446D01*
X204Y448D01*
X40Y448D01*
G37*
D02*
G36*
X40Y446D02*
X40Y410D01*
X98Y410D01*
X98Y408D01*
X106Y408D01*
X106Y406D01*
X110Y406D01*
X110Y404D01*
X114Y404D01*
X114Y402D01*
X118Y402D01*
X118Y400D01*
X120Y400D01*
X120Y398D01*
X122Y398D01*
X122Y396D01*
X126Y396D01*
X126Y394D01*
X128Y394D01*
X128Y390D01*
X130Y390D01*
X130Y388D01*
X132Y388D01*
X132Y386D01*
X134Y386D01*
X134Y382D01*
X136Y382D01*
X136Y380D01*
X138Y380D01*
X138Y376D01*
X140Y376D01*
X140Y370D01*
X142Y370D01*
X142Y350D01*
X140Y350D01*
X140Y344D01*
X138Y344D01*
X138Y340D01*
X136Y340D01*
X136Y336D01*
X134Y336D01*
X134Y332D01*
X132Y332D01*
X132Y330D01*
X130Y330D01*
X130Y328D01*
X128Y328D01*
X128Y326D01*
X126Y326D01*
X126Y324D01*
X124Y324D01*
X124Y322D01*
X122Y322D01*
X122Y320D01*
X120Y320D01*
X120Y318D01*
X116Y318D01*
X116Y316D01*
X112Y316D01*
X112Y314D01*
X108Y314D01*
X108Y312D01*
X102Y312D01*
X102Y310D01*
X204Y310D01*
X204Y312D01*
X202Y312D01*
X202Y318D01*
X200Y318D01*
X200Y328D01*
X198Y328D01*
X198Y330D01*
X200Y330D01*
X200Y340D01*
X202Y340D01*
X202Y346D01*
X204Y346D01*
X204Y350D01*
X206Y350D01*
X206Y354D01*
X208Y354D01*
X208Y356D01*
X210Y356D01*
X210Y358D01*
X212Y358D01*
X212Y360D01*
X214Y360D01*
X214Y362D01*
X216Y362D01*
X216Y364D01*
X218Y364D01*
X218Y366D01*
X220Y366D01*
X220Y368D01*
X222Y368D01*
X222Y370D01*
X224Y370D01*
X224Y390D01*
X220Y390D01*
X220Y392D01*
X218Y392D01*
X218Y394D01*
X216Y394D01*
X216Y396D01*
X214Y396D01*
X214Y398D01*
X212Y398D01*
X212Y400D01*
X210Y400D01*
X210Y402D01*
X208Y402D01*
X208Y406D01*
X206Y406D01*
X206Y408D01*
X204Y408D01*
X204Y412D01*
X202Y412D01*
X202Y418D01*
X200Y418D01*
X200Y428D01*
X198Y428D01*
X198Y430D01*
X200Y430D01*
X200Y440D01*
X202Y440D01*
X202Y446D01*
X40Y446D01*
G37*
D02*
G36*
X40Y410D02*
X40Y394D01*
X60Y394D01*
X60Y396D01*
X62Y396D01*
X62Y398D01*
X64Y398D01*
X64Y400D01*
X66Y400D01*
X66Y402D01*
X70Y402D01*
X70Y404D01*
X74Y404D01*
X74Y406D01*
X78Y406D01*
X78Y408D01*
X86Y408D01*
X86Y410D01*
X40Y410D01*
G37*
D02*
G36*
X40Y324D02*
X40Y310D01*
X82Y310D01*
X82Y312D01*
X76Y312D01*
X76Y314D01*
X72Y314D01*
X72Y316D01*
X68Y316D01*
X68Y318D01*
X66Y318D01*
X66Y320D01*
X62Y320D01*
X62Y322D01*
X60Y322D01*
X60Y324D01*
X40Y324D01*
G37*
D02*
G36*
X40Y310D02*
X40Y308D01*
X204Y308D01*
X204Y310D01*
X40Y310D01*
G37*
D02*
G36*
X40Y310D02*
X40Y308D01*
X204Y308D01*
X204Y310D01*
X40Y310D01*
G37*
D02*
G36*
X40Y308D02*
X40Y282D01*
X238Y282D01*
X238Y284D01*
X232Y284D01*
X232Y286D01*
X228Y286D01*
X228Y288D01*
X224Y288D01*
X224Y290D01*
X220Y290D01*
X220Y292D01*
X218Y292D01*
X218Y294D01*
X216Y294D01*
X216Y296D01*
X214Y296D01*
X214Y298D01*
X212Y298D01*
X212Y300D01*
X210Y300D01*
X210Y302D01*
X208Y302D01*
X208Y306D01*
X206Y306D01*
X206Y308D01*
X40Y308D01*
G37*
D02*
G36*
X40Y282D02*
X40Y280D01*
X568Y280D01*
X568Y282D01*
X40Y282D01*
G37*
D02*
G36*
X40Y282D02*
X40Y280D01*
X568Y280D01*
X568Y282D01*
X40Y282D01*
G37*
D02*
G36*
X40Y280D02*
X40Y272D01*
X100Y272D01*
X100Y270D01*
X106Y270D01*
X106Y268D01*
X112Y268D01*
X112Y266D01*
X114Y266D01*
X114Y264D01*
X118Y264D01*
X118Y262D01*
X120Y262D01*
X120Y260D01*
X124Y260D01*
X124Y258D01*
X126Y258D01*
X126Y256D01*
X128Y256D01*
X128Y254D01*
X130Y254D01*
X130Y250D01*
X132Y250D01*
X132Y248D01*
X134Y248D01*
X134Y244D01*
X136Y244D01*
X136Y242D01*
X138Y242D01*
X138Y238D01*
X140Y238D01*
X140Y232D01*
X142Y232D01*
X142Y216D01*
X368Y216D01*
X368Y214D01*
X372Y214D01*
X372Y212D01*
X376Y212D01*
X376Y210D01*
X380Y210D01*
X380Y208D01*
X382Y208D01*
X382Y206D01*
X386Y206D01*
X386Y204D01*
X388Y204D01*
X388Y202D01*
X390Y202D01*
X390Y200D01*
X392Y200D01*
X392Y198D01*
X394Y198D01*
X394Y194D01*
X396Y194D01*
X396Y192D01*
X398Y192D01*
X398Y188D01*
X400Y188D01*
X400Y184D01*
X402Y184D01*
X402Y178D01*
X404Y178D01*
X404Y162D01*
X402Y162D01*
X402Y156D01*
X400Y156D01*
X400Y150D01*
X398Y150D01*
X398Y148D01*
X396Y148D01*
X396Y144D01*
X394Y144D01*
X394Y142D01*
X392Y142D01*
X392Y140D01*
X390Y140D01*
X390Y136D01*
X388Y136D01*
X388Y134D01*
X384Y134D01*
X384Y132D01*
X382Y132D01*
X382Y130D01*
X380Y130D01*
X380Y128D01*
X376Y128D01*
X376Y126D01*
X372Y126D01*
X372Y124D01*
X366Y124D01*
X366Y122D01*
X568Y122D01*
X568Y150D01*
X466Y150D01*
X466Y248D01*
X468Y248D01*
X468Y250D01*
X568Y250D01*
X568Y280D01*
X40Y280D01*
G37*
D02*
G36*
X40Y272D02*
X40Y256D01*
X60Y256D01*
X60Y258D01*
X62Y258D01*
X62Y260D01*
X64Y260D01*
X64Y262D01*
X66Y262D01*
X66Y264D01*
X70Y264D01*
X70Y266D01*
X74Y266D01*
X74Y268D01*
X78Y268D01*
X78Y270D01*
X86Y270D01*
X86Y272D01*
X40Y272D01*
G37*
D02*
G36*
X142Y216D02*
X142Y212D01*
X140Y212D01*
X140Y206D01*
X138Y206D01*
X138Y202D01*
X136Y202D01*
X136Y198D01*
X134Y198D01*
X134Y196D01*
X132Y196D01*
X132Y192D01*
X130Y192D01*
X130Y190D01*
X128Y190D01*
X128Y188D01*
X126Y188D01*
X126Y186D01*
X124Y186D01*
X124Y184D01*
X122Y184D01*
X122Y182D01*
X118Y182D01*
X118Y180D01*
X116Y180D01*
X116Y178D01*
X112Y178D01*
X112Y176D01*
X108Y176D01*
X108Y174D01*
X102Y174D01*
X102Y172D01*
X208Y172D01*
X208Y216D01*
X142Y216D01*
G37*
D02*
G36*
X304Y216D02*
X304Y200D01*
X324Y200D01*
X324Y202D01*
X326Y202D01*
X326Y204D01*
X328Y204D01*
X328Y206D01*
X330Y206D01*
X330Y208D01*
X332Y208D01*
X332Y210D01*
X336Y210D01*
X336Y212D01*
X340Y212D01*
X340Y214D01*
X346Y214D01*
X346Y216D01*
X304Y216D01*
G37*
D02*
G36*
X40Y186D02*
X40Y172D01*
X82Y172D01*
X82Y174D01*
X76Y174D01*
X76Y176D01*
X72Y176D01*
X72Y178D01*
X68Y178D01*
X68Y180D01*
X66Y180D01*
X66Y182D01*
X64Y182D01*
X64Y184D01*
X60Y184D01*
X60Y186D01*
X40Y186D01*
G37*
D02*
G36*
X40Y172D02*
X40Y170D01*
X208Y170D01*
X208Y172D01*
X40Y172D01*
G37*
D02*
G36*
X40Y172D02*
X40Y170D01*
X208Y170D01*
X208Y172D01*
X40Y172D01*
G37*
D02*
G36*
X40Y170D02*
X40Y134D01*
X142Y134D01*
X142Y122D01*
X208Y122D01*
X208Y170D01*
X40Y170D01*
G37*
D02*
G36*
X304Y138D02*
X304Y122D01*
X348Y122D01*
X348Y124D01*
X342Y124D01*
X342Y126D01*
X338Y126D01*
X338Y128D01*
X334Y128D01*
X334Y130D01*
X330Y130D01*
X330Y132D01*
X328Y132D01*
X328Y134D01*
X326Y134D01*
X326Y136D01*
X324Y136D01*
X324Y138D01*
X304Y138D01*
G37*
D02*
G36*
X142Y122D02*
X142Y120D01*
X568Y120D01*
X568Y122D01*
X142Y122D01*
G37*
D02*
G36*
X142Y122D02*
X142Y120D01*
X568Y120D01*
X568Y122D01*
X142Y122D01*
G37*
D02*
G36*
X142Y122D02*
X142Y120D01*
X568Y120D01*
X568Y122D01*
X142Y122D01*
G37*
D02*
G36*
X142Y120D02*
X142Y112D01*
X522Y112D01*
X522Y110D01*
X530Y110D01*
X530Y108D01*
X534Y108D01*
X534Y106D01*
X538Y106D01*
X538Y104D01*
X542Y104D01*
X542Y102D01*
X544Y102D01*
X544Y100D01*
X546Y100D01*
X546Y98D01*
X568Y98D01*
X568Y120D01*
X142Y120D01*
G37*
D02*
G36*
X142Y112D02*
X142Y40D01*
X466Y40D01*
X466Y68D01*
X468Y68D01*
X468Y76D01*
X470Y76D01*
X470Y80D01*
X472Y80D01*
X472Y84D01*
X474Y84D01*
X474Y86D01*
X476Y86D01*
X476Y90D01*
X478Y90D01*
X478Y92D01*
X480Y92D01*
X480Y94D01*
X482Y94D01*
X482Y96D01*
X484Y96D01*
X484Y98D01*
X486Y98D01*
X486Y100D01*
X488Y100D01*
X488Y102D01*
X492Y102D01*
X492Y104D01*
X494Y104D01*
X494Y106D01*
X498Y106D01*
X498Y108D01*
X502Y108D01*
X502Y110D01*
X512Y110D01*
X512Y112D01*
X142Y112D01*
G37*
D02*
G36*
X142Y1260D02*
X185Y1260D01*
X185Y1228D01*
X142Y1228D01*
X142Y1260D01*
G37*
D02*
G36*
X114Y1232D02*
X146Y1232D01*
X146Y1189D01*
X114Y1189D01*
X114Y1232D01*
G37*
D02*
G36*
X234Y154D02*
X277Y154D01*
X277Y122D01*
X234Y122D01*
X234Y154D01*
G37*
D02*
G36*
X493Y44D02*
X538Y44D01*
X538Y16D01*
X493Y16D01*
X493Y44D01*
G37*
D02*
G36*
X462Y85D02*
X496Y85D01*
X496Y40D01*
X462Y40D01*
X462Y85D01*
G37*
D02*
G36*
X534Y85D02*
X566Y85D01*
X566Y40D01*
X534Y40D01*
X534Y85D01*
G37*
D02*
G36*
X262Y352D02*
X294Y352D01*
X294Y309D01*
X262Y309D01*
X262Y352D01*
G37*
D02*
G36*
X38Y659D02*
X72Y659D01*
X72Y614D01*
X38Y614D01*
X38Y659D01*
G37*
D02*
G36*
X69Y66D02*
X114Y66D01*
X114Y40D01*
X69Y40D01*
X69Y66D01*
G37*
D02*
G36*
X38Y107D02*
X72Y107D01*
X72Y62D01*
X38Y62D01*
X38Y107D01*
G37*
D02*
G36*
X110Y107D02*
X142Y107D01*
X142Y62D01*
X110Y62D01*
X110Y107D01*
G37*
D02*
G36*
X38Y383D02*
X72Y383D01*
X72Y338D01*
X38Y338D01*
X38Y383D01*
G37*
D02*
G04 End of Copper1*
M02*