G04 MADE WITH FRITZING*
G04 WWW.FRITZING.ORG*
G04 DOUBLE SIDED*
G04 HOLES PLATED*
G04 CONTOUR ON CENTER OF CONTOUR VECTOR*
%ASAXBY*%
%FSLAX23Y23*%
%MOIN*%
%OFA0B0*%
%SFA1.0B1.0*%
%ADD10C,0.084000*%
%ADD11C,0.116614*%
%ADD12C,0.053307*%
%ADD13C,0.085000*%
%ADD14C,0.092000*%
%ADD15C,0.090000*%
%ADD16R,0.085000X0.085000*%
%ADD17R,0.092000X0.092000*%
%ADD18R,0.090000X0.090000*%
%LNMASK0*%
G90*
G70*
G54D10*
X440Y1209D03*
X346Y1209D03*
X258Y1209D03*
X164Y1209D03*
G54D11*
X74Y1304D03*
X530Y1304D03*
G54D12*
X391Y1308D03*
X214Y1308D03*
G54D13*
X146Y939D03*
X546Y939D03*
X146Y1119D03*
X546Y1119D03*
X256Y169D03*
X356Y169D03*
G54D14*
X246Y739D03*
X544Y739D03*
X246Y839D03*
X544Y839D03*
G54D15*
X516Y199D03*
X516Y61D03*
X92Y84D03*
X92Y222D03*
X92Y360D03*
X92Y497D03*
X92Y635D03*
X92Y773D03*
G54D13*
X246Y629D03*
X546Y629D03*
X246Y529D03*
X546Y529D03*
X246Y429D03*
X546Y429D03*
X246Y329D03*
X546Y329D03*
X146Y1029D03*
X546Y1029D03*
G54D16*
X256Y169D03*
G54D17*
X245Y739D03*
X245Y839D03*
G54D18*
X516Y199D03*
X92Y84D03*
G54D16*
X246Y629D03*
G04 End of Mask0*
M02*