G04 MADE WITH FRITZING*
G04 WWW.FRITZING.ORG*
G04 DOUBLE SIDED*
G04 HOLES PLATED*
G04 CONTOUR ON CENTER OF CONTOUR VECTOR*
%ASAXBY*%
%FSLAX23Y23*%
%MOIN*%
%OFA0B0*%
%SFA1.0B1.0*%
%ADD10R,0.608047X1.426100X0.592047X1.410100*%
%ADD11C,0.008000*%
%LNSILK0*%
G90*
G70*
G54D11*
X4Y1422D02*
X604Y1422D01*
X604Y4D01*
X4Y4D01*
X4Y1422D01*
D02*
G36*
X243Y1112D02*
X243Y1110D01*
X241Y1110D01*
X241Y1112D01*
X243Y1112D01*
G37*
D02*
G36*
X260Y1108D02*
X260Y1106D01*
X264Y1106D01*
X264Y1104D01*
X256Y1104D01*
X256Y1106D01*
X258Y1106D01*
X258Y1108D01*
X260Y1108D01*
G37*
D02*
G36*
X237Y1097D02*
X237Y1095D01*
X235Y1095D01*
X235Y1097D01*
X237Y1097D01*
G37*
D02*
G36*
X417Y1087D02*
X417Y1083D01*
X415Y1083D01*
X415Y1081D01*
X411Y1081D01*
X411Y1087D01*
X417Y1087D01*
G37*
D02*
G36*
X419Y1083D02*
X419Y1081D01*
X417Y1081D01*
X417Y1083D01*
X419Y1083D01*
G37*
D02*
G36*
X419Y1081D02*
X419Y1079D01*
X413Y1079D01*
X413Y1081D01*
X419Y1081D01*
G37*
D02*
G36*
X419Y1081D02*
X419Y1079D01*
X413Y1079D01*
X413Y1081D01*
X419Y1081D01*
G37*
D02*
G36*
X421Y1079D02*
X421Y1077D01*
X424Y1077D01*
X424Y1073D01*
X421Y1073D01*
X421Y1070D01*
X419Y1070D01*
X419Y1073D01*
X417Y1073D01*
X417Y1075D01*
X415Y1075D01*
X415Y1079D01*
X421Y1079D01*
G37*
D02*
G36*
X262Y1079D02*
X262Y1077D01*
X260Y1077D01*
X260Y1079D01*
X262Y1079D01*
G37*
D02*
G36*
X264Y1077D02*
X264Y1075D01*
X262Y1075D01*
X262Y1077D01*
X264Y1077D01*
G37*
D02*
G36*
X229Y1075D02*
X229Y1073D01*
X227Y1073D01*
X227Y1075D01*
X229Y1075D01*
G37*
D02*
G36*
X467Y1077D02*
X467Y1075D01*
X461Y1075D01*
X461Y1077D01*
X467Y1077D01*
G37*
D02*
G36*
X459Y1077D02*
X459Y1075D01*
X455Y1075D01*
X455Y1077D01*
X459Y1077D01*
G37*
D02*
G36*
X471Y1075D02*
X471Y1073D01*
X467Y1073D01*
X467Y1075D01*
X471Y1075D01*
G37*
D02*
G36*
X465Y1075D02*
X465Y1073D01*
X446Y1073D01*
X446Y1075D01*
X465Y1075D01*
G37*
D02*
G36*
X465Y1075D02*
X465Y1073D01*
X446Y1073D01*
X446Y1075D01*
X465Y1075D01*
G37*
D02*
G36*
X428Y1075D02*
X428Y1073D01*
X432Y1073D01*
X432Y1070D01*
X426Y1070D01*
X426Y1068D01*
X424Y1068D01*
X424Y1073D01*
X426Y1073D01*
X426Y1075D01*
X428Y1075D01*
G37*
D02*
G36*
X475Y1073D02*
X475Y1070D01*
X473Y1070D01*
X473Y1073D01*
X475Y1073D01*
G37*
D02*
G36*
X471Y1073D02*
X471Y1070D01*
X440Y1070D01*
X440Y1073D01*
X471Y1073D01*
G37*
D02*
G36*
X471Y1073D02*
X471Y1070D01*
X440Y1070D01*
X440Y1073D01*
X471Y1073D01*
G37*
D02*
G36*
X438Y1073D02*
X438Y1070D01*
X434Y1070D01*
X434Y1073D01*
X438Y1073D01*
G37*
D02*
G36*
X477Y1070D02*
X477Y1068D01*
X467Y1068D01*
X467Y1070D01*
X477Y1070D01*
G37*
D02*
G36*
X477Y1070D02*
X477Y1068D01*
X467Y1068D01*
X467Y1070D01*
X477Y1070D01*
G37*
D02*
G36*
X455Y1070D02*
X455Y1068D01*
X436Y1068D01*
X436Y1070D01*
X455Y1070D01*
G37*
D02*
G36*
X455Y1070D02*
X455Y1068D01*
X436Y1068D01*
X436Y1070D01*
X455Y1070D01*
G37*
D02*
G36*
X434Y1070D02*
X434Y1068D01*
X428Y1068D01*
X428Y1070D01*
X434Y1070D01*
G37*
D02*
G36*
X479Y1068D02*
X479Y1064D01*
X477Y1064D01*
X477Y1062D01*
X475Y1062D01*
X475Y1066D01*
X471Y1066D01*
X471Y1068D01*
X479Y1068D01*
G37*
D02*
G36*
X444Y1068D02*
X444Y1066D01*
X428Y1066D01*
X428Y1068D01*
X444Y1068D01*
G37*
D02*
G36*
X444Y1068D02*
X444Y1066D01*
X428Y1066D01*
X428Y1068D01*
X444Y1068D01*
G37*
D02*
G36*
X482Y1064D02*
X482Y1062D01*
X479Y1062D01*
X479Y1064D01*
X482Y1064D01*
G37*
D02*
G36*
X482Y1062D02*
X482Y1060D01*
X475Y1060D01*
X475Y1062D01*
X482Y1062D01*
G37*
D02*
G36*
X482Y1062D02*
X482Y1060D01*
X475Y1060D01*
X475Y1062D01*
X482Y1062D01*
G37*
D02*
G36*
X484Y1060D02*
X484Y1052D01*
X479Y1052D01*
X479Y1050D01*
X477Y1050D01*
X477Y1060D01*
X484Y1060D01*
G37*
D02*
G36*
X484Y1052D02*
X484Y1050D01*
X482Y1050D01*
X482Y1052D01*
X484Y1052D01*
G37*
D02*
G36*
X494Y1050D02*
X494Y1048D01*
X488Y1048D01*
X488Y1050D01*
X494Y1050D01*
G37*
D02*
G36*
X484Y1050D02*
X484Y1048D01*
X477Y1048D01*
X477Y1050D01*
X484Y1050D01*
G37*
D02*
G36*
X484Y1050D02*
X484Y1048D01*
X477Y1048D01*
X477Y1050D01*
X484Y1050D01*
G37*
D02*
G36*
X498Y1048D02*
X498Y1046D01*
X475Y1046D01*
X475Y1048D01*
X498Y1048D01*
G37*
D02*
G36*
X498Y1048D02*
X498Y1046D01*
X475Y1046D01*
X475Y1048D01*
X498Y1048D01*
G37*
D02*
G36*
X475Y1050D02*
X475Y1048D01*
X473Y1048D01*
X473Y1046D01*
X372Y1046D01*
X372Y1048D01*
X380Y1048D01*
X380Y1050D01*
X475Y1050D01*
G37*
D02*
G36*
X345Y1048D02*
X345Y1046D01*
X341Y1046D01*
X341Y1048D01*
X345Y1048D01*
G37*
D02*
G36*
X339Y1048D02*
X339Y1046D01*
X334Y1046D01*
X334Y1048D01*
X339Y1048D01*
G37*
D02*
G36*
X345Y1046D02*
X345Y1044D01*
X332Y1044D01*
X332Y1046D01*
X345Y1046D01*
G37*
D02*
G36*
X345Y1046D02*
X345Y1044D01*
X332Y1044D01*
X332Y1046D01*
X345Y1046D01*
G37*
D02*
G36*
X345Y1044D02*
X345Y1031D01*
X332Y1031D01*
X332Y1029D01*
X328Y1029D01*
X328Y1031D01*
X332Y1031D01*
X332Y1033D01*
X334Y1033D01*
X334Y1041D01*
X332Y1041D01*
X332Y1044D01*
X345Y1044D01*
G37*
D02*
G36*
X345Y1031D02*
X345Y1029D01*
X334Y1029D01*
X334Y1031D01*
X345Y1031D01*
G37*
D02*
G36*
X345Y1029D02*
X345Y1027D01*
X324Y1027D01*
X324Y1029D01*
X345Y1029D01*
G37*
D02*
G36*
X345Y1029D02*
X345Y1027D01*
X324Y1027D01*
X324Y1029D01*
X345Y1029D01*
G37*
D02*
G36*
X322Y1029D02*
X322Y1027D01*
X320Y1027D01*
X320Y1029D01*
X322Y1029D01*
G37*
D02*
G36*
X345Y1027D02*
X345Y1025D01*
X303Y1025D01*
X303Y1027D01*
X345Y1027D01*
G37*
D02*
G36*
X345Y1027D02*
X345Y1025D01*
X303Y1025D01*
X303Y1027D01*
X345Y1027D01*
G37*
D02*
G36*
X345Y1025D02*
X345Y1021D01*
X299Y1021D01*
X299Y1023D01*
X295Y1023D01*
X295Y1025D01*
X345Y1025D01*
G37*
D02*
G36*
X293Y1025D02*
X293Y1023D01*
X291Y1023D01*
X291Y1025D01*
X293Y1025D01*
G37*
D02*
G36*
X289Y1025D02*
X289Y1023D01*
X285Y1023D01*
X285Y1025D01*
X289Y1025D01*
G37*
D02*
G36*
X295Y1023D02*
X295Y1021D01*
X272Y1021D01*
X272Y1023D01*
X295Y1023D01*
G37*
D02*
G36*
X295Y1023D02*
X295Y1021D01*
X272Y1021D01*
X272Y1023D01*
X295Y1023D01*
G37*
D02*
G36*
X345Y1021D02*
X345Y1019D01*
X283Y1019D01*
X283Y1021D01*
X345Y1021D01*
G37*
D02*
G36*
X345Y1021D02*
X345Y1019D01*
X283Y1019D01*
X283Y1021D01*
X345Y1021D01*
G37*
D02*
G36*
X281Y1021D02*
X281Y1019D01*
X276Y1019D01*
X276Y1021D01*
X281Y1021D01*
G37*
D02*
G36*
X274Y1021D02*
X274Y1019D01*
X272Y1019D01*
X272Y1017D01*
X264Y1017D01*
X264Y1015D01*
X262Y1015D01*
X262Y1017D01*
X264Y1017D01*
X264Y1019D01*
X266Y1019D01*
X266Y1021D01*
X274Y1021D01*
G37*
D02*
G36*
X345Y1019D02*
X345Y1017D01*
X299Y1017D01*
X299Y1019D01*
X345Y1019D01*
G37*
D02*
G36*
X297Y1019D02*
X297Y1017D01*
X293Y1017D01*
X293Y1019D01*
X297Y1019D01*
G37*
D02*
G36*
X291Y1019D02*
X291Y1017D01*
X289Y1017D01*
X289Y1015D01*
X285Y1015D01*
X285Y1017D01*
X281Y1017D01*
X281Y1019D01*
X291Y1019D01*
G37*
D02*
G36*
X278Y1019D02*
X278Y1017D01*
X274Y1017D01*
X274Y1019D01*
X278Y1019D01*
G37*
D02*
G36*
X345Y1017D02*
X345Y1015D01*
X291Y1015D01*
X291Y1017D01*
X345Y1017D01*
G37*
D02*
G36*
X345Y1017D02*
X345Y1015D01*
X291Y1015D01*
X291Y1017D01*
X345Y1017D01*
G37*
D02*
G36*
X283Y1017D02*
X283Y1015D01*
X272Y1015D01*
X272Y1017D01*
X283Y1017D01*
G37*
D02*
G36*
X283Y1017D02*
X283Y1015D01*
X272Y1015D01*
X272Y1017D01*
X283Y1017D01*
G37*
D02*
G36*
X270Y1017D02*
X270Y1015D01*
X268Y1015D01*
X268Y1017D01*
X270Y1017D01*
G37*
D02*
G36*
X345Y1015D02*
X345Y1012D01*
X276Y1012D01*
X276Y1015D01*
X345Y1015D01*
G37*
D02*
G36*
X345Y1015D02*
X345Y1012D01*
X276Y1012D01*
X276Y1015D01*
X345Y1015D01*
G37*
D02*
G36*
X345Y1015D02*
X345Y1012D01*
X276Y1012D01*
X276Y1015D01*
X345Y1015D01*
G37*
D02*
G36*
X274Y1015D02*
X274Y1012D01*
X260Y1012D01*
X260Y1015D01*
X274Y1015D01*
G37*
D02*
G36*
X274Y1015D02*
X274Y1012D01*
X260Y1012D01*
X260Y1015D01*
X274Y1015D01*
G37*
D02*
G36*
X274Y1015D02*
X274Y1012D01*
X260Y1012D01*
X260Y1015D01*
X274Y1015D01*
G37*
D02*
G36*
X345Y1012D02*
X345Y1010D01*
X260Y1010D01*
X260Y1012D01*
X345Y1012D01*
G37*
D02*
G36*
X345Y1012D02*
X345Y1010D01*
X260Y1010D01*
X260Y1012D01*
X345Y1012D01*
G37*
D02*
G36*
X345Y1010D02*
X345Y1008D01*
X285Y1008D01*
X285Y1010D01*
X345Y1010D01*
G37*
D02*
G36*
X283Y1010D02*
X283Y1008D01*
X281Y1008D01*
X281Y1010D01*
X283Y1010D01*
G37*
D02*
G36*
X278Y1010D02*
X278Y1008D01*
X266Y1008D01*
X266Y1006D01*
X262Y1006D01*
X262Y1010D01*
X278Y1010D01*
G37*
D02*
G36*
X345Y1008D02*
X345Y1006D01*
X268Y1006D01*
X268Y1008D01*
X345Y1008D01*
G37*
D02*
G36*
X345Y1008D02*
X345Y1006D01*
X268Y1006D01*
X268Y1008D01*
X345Y1008D01*
G37*
D02*
G36*
X345Y1008D02*
X345Y1006D01*
X268Y1006D01*
X268Y1008D01*
X345Y1008D01*
G37*
D02*
G36*
X345Y1006D02*
X345Y998D01*
X285Y998D01*
X285Y1000D01*
X283Y1000D01*
X283Y1002D01*
X278Y1002D01*
X278Y1004D01*
X276Y1004D01*
X276Y1006D01*
X345Y1006D01*
G37*
D02*
G36*
X274Y1006D02*
X274Y1004D01*
X264Y1004D01*
X264Y1006D01*
X274Y1006D01*
G37*
D02*
G36*
X274Y1006D02*
X274Y1004D01*
X264Y1004D01*
X264Y1006D01*
X274Y1006D01*
G37*
D02*
G36*
X276Y1004D02*
X276Y1002D01*
X270Y1002D01*
X270Y1004D01*
X276Y1004D01*
G37*
D02*
G36*
X268Y1004D02*
X268Y1002D01*
X266Y1002D01*
X266Y1004D01*
X268Y1004D01*
G37*
D02*
G36*
X281Y1002D02*
X281Y1000D01*
X274Y1000D01*
X274Y1002D01*
X281Y1002D01*
G37*
D02*
G36*
X281Y1002D02*
X281Y1000D01*
X274Y1000D01*
X274Y1002D01*
X281Y1002D01*
G37*
D02*
G36*
X272Y1002D02*
X272Y1000D01*
X268Y1000D01*
X268Y1002D01*
X272Y1002D01*
G37*
D02*
G36*
X283Y1000D02*
X283Y998D01*
X278Y998D01*
X278Y996D01*
X276Y996D01*
X276Y998D01*
X272Y998D01*
X272Y1000D01*
X283Y1000D01*
G37*
D02*
G36*
X345Y998D02*
X345Y996D01*
X281Y996D01*
X281Y998D01*
X345Y998D01*
G37*
D02*
G36*
X345Y998D02*
X345Y996D01*
X281Y996D01*
X281Y998D01*
X345Y998D01*
G37*
D02*
G36*
X345Y996D02*
X345Y994D01*
X301Y994D01*
X301Y992D01*
X287Y992D01*
X287Y994D01*
X283Y994D01*
X283Y996D01*
X345Y996D01*
G37*
D02*
G36*
X345Y994D02*
X345Y992D01*
X332Y992D01*
X332Y994D01*
X345Y994D01*
G37*
D02*
G36*
X330Y994D02*
X330Y992D01*
X303Y992D01*
X303Y994D01*
X330Y994D01*
G37*
D02*
G36*
X345Y992D02*
X345Y990D01*
X339Y990D01*
X339Y988D01*
X332Y988D01*
X332Y990D01*
X330Y990D01*
X330Y992D01*
X345Y992D01*
G37*
D02*
G36*
X328Y992D02*
X328Y990D01*
X291Y990D01*
X291Y992D01*
X328Y992D01*
G37*
D02*
G36*
X328Y992D02*
X328Y990D01*
X291Y990D01*
X291Y992D01*
X328Y992D01*
G37*
D02*
G36*
X345Y990D02*
X345Y983D01*
X343Y983D01*
X343Y988D01*
X341Y988D01*
X341Y990D01*
X345Y990D01*
G37*
D02*
G36*
X330Y990D02*
X330Y988D01*
X320Y988D01*
X320Y990D01*
X330Y990D01*
G37*
D02*
G36*
X318Y990D02*
X318Y988D01*
X314Y988D01*
X314Y990D01*
X318Y990D01*
G37*
D02*
G36*
X312Y990D02*
X312Y988D01*
X310Y988D01*
X310Y990D01*
X312Y990D01*
G37*
D02*
G36*
X308Y990D02*
X308Y988D01*
X305Y988D01*
X305Y986D01*
X303Y986D01*
X303Y990D01*
X308Y990D01*
G37*
D02*
G36*
X301Y990D02*
X301Y988D01*
X297Y988D01*
X297Y990D01*
X301Y990D01*
G37*
D02*
G36*
X341Y988D02*
X341Y983D01*
X337Y983D01*
X337Y988D01*
X341Y988D01*
G37*
D02*
G36*
X334Y988D02*
X334Y986D01*
X330Y986D01*
X330Y988D01*
X334Y988D01*
G37*
D02*
G36*
X328Y988D02*
X328Y986D01*
X322Y986D01*
X322Y983D01*
X320Y983D01*
X320Y986D01*
X318Y986D01*
X318Y988D01*
X328Y988D01*
G37*
D02*
G36*
X316Y988D02*
X316Y986D01*
X314Y986D01*
X314Y983D01*
X310Y983D01*
X310Y986D01*
X312Y986D01*
X312Y988D01*
X316Y988D01*
G37*
D02*
G36*
X334Y986D02*
X334Y983D01*
X324Y983D01*
X324Y986D01*
X334Y986D01*
G37*
D02*
G36*
X334Y986D02*
X334Y983D01*
X324Y983D01*
X324Y986D01*
X334Y986D01*
G37*
D02*
G36*
X345Y983D02*
X345Y981D01*
X326Y981D01*
X326Y983D01*
X345Y983D01*
G37*
D02*
G36*
X345Y983D02*
X345Y981D01*
X326Y981D01*
X326Y983D01*
X345Y983D01*
G37*
D02*
G36*
X345Y983D02*
X345Y981D01*
X326Y981D01*
X326Y983D01*
X345Y983D01*
G37*
D02*
G36*
X345Y981D02*
X345Y979D01*
X343Y979D01*
X343Y981D01*
X345Y981D01*
G37*
D02*
G36*
X341Y981D02*
X341Y979D01*
X334Y979D01*
X334Y981D01*
X341Y981D01*
G37*
D02*
G36*
X332Y981D02*
X332Y979D01*
X326Y979D01*
X326Y981D01*
X332Y981D01*
G37*
D02*
G36*
X332Y1048D02*
X332Y1046D01*
X330Y1046D01*
X330Y1048D01*
X332Y1048D01*
G37*
D02*
G36*
X328Y1048D02*
X328Y1046D01*
X322Y1046D01*
X322Y1048D01*
X328Y1048D01*
G37*
D02*
G36*
X500Y1046D02*
X500Y1041D01*
X502Y1041D01*
X502Y990D01*
X500Y990D01*
X500Y992D01*
X498Y992D01*
X498Y994D01*
X500Y994D01*
X500Y1035D01*
X498Y1035D01*
X498Y1037D01*
X500Y1037D01*
X500Y1039D01*
X498Y1039D01*
X498Y1046D01*
X500Y1046D01*
G37*
D02*
G36*
X372Y1046D02*
X372Y1037D01*
X370Y1037D01*
X370Y1039D01*
X368Y1039D01*
X368Y1041D01*
X370Y1041D01*
X370Y1046D01*
X372Y1046D01*
G37*
D02*
G36*
X330Y1046D02*
X330Y1044D01*
X328Y1044D01*
X328Y1046D01*
X330Y1046D01*
G37*
D02*
G36*
X370Y1037D02*
X370Y992D01*
X372Y992D01*
X372Y983D01*
X370Y983D01*
X370Y988D01*
X368Y988D01*
X368Y1037D01*
X370Y1037D01*
G37*
D02*
G36*
X482Y1035D02*
X482Y1033D01*
X477Y1033D01*
X477Y1031D01*
X475Y1031D01*
X475Y1035D01*
X482Y1035D01*
G37*
D02*
G36*
X484Y1033D02*
X484Y1031D01*
X479Y1031D01*
X479Y1033D01*
X484Y1033D01*
G37*
D02*
G36*
X484Y1031D02*
X484Y1029D01*
X475Y1029D01*
X475Y1031D01*
X484Y1031D01*
G37*
D02*
G36*
X484Y1031D02*
X484Y1029D01*
X475Y1029D01*
X475Y1031D01*
X484Y1031D01*
G37*
D02*
G36*
X484Y1029D02*
X484Y1027D01*
X475Y1027D01*
X475Y1029D01*
X484Y1029D01*
G37*
D02*
G36*
X465Y1035D02*
X465Y1027D01*
X459Y1027D01*
X459Y1035D01*
X465Y1035D01*
G37*
D02*
G36*
X448Y1035D02*
X448Y1027D01*
X440Y1027D01*
X440Y1035D01*
X448Y1035D01*
G37*
D02*
G36*
X430Y1035D02*
X430Y1031D01*
X428Y1031D01*
X428Y1029D01*
X430Y1029D01*
X430Y1027D01*
X421Y1027D01*
X421Y1035D01*
X430Y1035D01*
G37*
D02*
G36*
X411Y1035D02*
X411Y1027D01*
X405Y1027D01*
X405Y1035D01*
X411Y1035D01*
G37*
D02*
G36*
X395Y1035D02*
X395Y1033D01*
X392Y1033D01*
X392Y1035D01*
X395Y1035D01*
G37*
D02*
G36*
X390Y1035D02*
X390Y1033D01*
X392Y1033D01*
X392Y1031D01*
X395Y1031D01*
X395Y1027D01*
X386Y1027D01*
X386Y1035D01*
X390Y1035D01*
G37*
D02*
G36*
X293Y1035D02*
X293Y1033D01*
X291Y1033D01*
X291Y1035D01*
X293Y1035D01*
G37*
D02*
G36*
X233Y1029D02*
X233Y1027D01*
X231Y1027D01*
X231Y1029D01*
X233Y1029D01*
G37*
D02*
G36*
X473Y1025D02*
X473Y1023D01*
X475Y1023D01*
X475Y1017D01*
X467Y1017D01*
X467Y1025D01*
X473Y1025D01*
G37*
D02*
G36*
X457Y1025D02*
X457Y1023D01*
X450Y1023D01*
X450Y1021D01*
X448Y1021D01*
X448Y1025D01*
X457Y1025D01*
G37*
D02*
G36*
X457Y1023D02*
X457Y1021D01*
X453Y1021D01*
X453Y1023D01*
X457Y1023D01*
G37*
D02*
G36*
X457Y1021D02*
X457Y1017D01*
X448Y1017D01*
X448Y1019D01*
X450Y1019D01*
X450Y1021D01*
X457Y1021D01*
G37*
D02*
G36*
X438Y1025D02*
X438Y1021D01*
X434Y1021D01*
X434Y1023D01*
X432Y1023D01*
X432Y1025D01*
X438Y1025D01*
G37*
D02*
G36*
X421Y1025D02*
X421Y1017D01*
X415Y1017D01*
X415Y1019D01*
X417Y1019D01*
X417Y1021D01*
X415Y1021D01*
X415Y1023D01*
X413Y1023D01*
X413Y1025D01*
X421Y1025D01*
G37*
D02*
G36*
X403Y1025D02*
X403Y1019D01*
X401Y1019D01*
X401Y1017D01*
X397Y1017D01*
X397Y1019D01*
X395Y1019D01*
X395Y1021D01*
X397Y1021D01*
X397Y1023D01*
X399Y1023D01*
X399Y1025D01*
X403Y1025D01*
G37*
D02*
G36*
X397Y1025D02*
X397Y1023D01*
X395Y1023D01*
X395Y1025D01*
X397Y1025D01*
G37*
D02*
G36*
X434Y1021D02*
X434Y1019D01*
X432Y1019D01*
X432Y1021D01*
X434Y1021D01*
G37*
D02*
G36*
X415Y1021D02*
X415Y1019D01*
X413Y1019D01*
X413Y1021D01*
X415Y1021D01*
G37*
D02*
G36*
X438Y1019D02*
X438Y1017D01*
X434Y1017D01*
X434Y1019D01*
X438Y1019D01*
G37*
D02*
G36*
X482Y1017D02*
X482Y1015D01*
X479Y1015D01*
X479Y1017D01*
X482Y1017D01*
G37*
D02*
G36*
X477Y1017D02*
X477Y1015D01*
X475Y1015D01*
X475Y1017D01*
X477Y1017D01*
G37*
D02*
G36*
X484Y1015D02*
X484Y1012D01*
X475Y1012D01*
X475Y1015D01*
X484Y1015D01*
G37*
D02*
G36*
X484Y1015D02*
X484Y1012D01*
X475Y1012D01*
X475Y1015D01*
X484Y1015D01*
G37*
D02*
G36*
X484Y1012D02*
X484Y1010D01*
X479Y1010D01*
X479Y1008D01*
X475Y1008D01*
X475Y1012D01*
X484Y1012D01*
G37*
D02*
G36*
X484Y1010D02*
X484Y1008D01*
X482Y1008D01*
X482Y1010D01*
X484Y1010D01*
G37*
D02*
G36*
X465Y1017D02*
X465Y1010D01*
X463Y1010D01*
X463Y1008D01*
X459Y1008D01*
X459Y1010D01*
X461Y1010D01*
X461Y1012D01*
X459Y1012D01*
X459Y1015D01*
X461Y1015D01*
X461Y1017D01*
X465Y1017D01*
G37*
D02*
G36*
X448Y1017D02*
X448Y1010D01*
X444Y1010D01*
X444Y1008D01*
X440Y1008D01*
X440Y1017D01*
X448Y1017D01*
G37*
D02*
G36*
X448Y1010D02*
X448Y1008D01*
X446Y1008D01*
X446Y1010D01*
X448Y1010D01*
G37*
D02*
G36*
X430Y1017D02*
X430Y1008D01*
X421Y1008D01*
X421Y1012D01*
X426Y1012D01*
X426Y1015D01*
X428Y1015D01*
X428Y1017D01*
X430Y1017D01*
G37*
D02*
G36*
X426Y1017D02*
X426Y1015D01*
X421Y1015D01*
X421Y1017D01*
X426Y1017D01*
G37*
D02*
G36*
X409Y1017D02*
X409Y1015D01*
X411Y1015D01*
X411Y1012D01*
X407Y1012D01*
X407Y1010D01*
X405Y1010D01*
X405Y1017D01*
X409Y1017D01*
G37*
D02*
G36*
X411Y1012D02*
X411Y1010D01*
X409Y1010D01*
X409Y1012D01*
X411Y1012D01*
G37*
D02*
G36*
X411Y1010D02*
X411Y1008D01*
X405Y1008D01*
X405Y1010D01*
X411Y1010D01*
G37*
D02*
G36*
X411Y1010D02*
X411Y1008D01*
X405Y1008D01*
X405Y1010D01*
X411Y1010D01*
G37*
D02*
G36*
X395Y1017D02*
X395Y1015D01*
X392Y1015D01*
X392Y1017D01*
X395Y1017D01*
G37*
D02*
G36*
X390Y1017D02*
X390Y1015D01*
X386Y1015D01*
X386Y1017D01*
X390Y1017D01*
G37*
D02*
G36*
X395Y1015D02*
X395Y1012D01*
X386Y1012D01*
X386Y1015D01*
X395Y1015D01*
G37*
D02*
G36*
X395Y1015D02*
X395Y1012D01*
X386Y1012D01*
X386Y1015D01*
X395Y1015D01*
G37*
D02*
G36*
X395Y1012D02*
X395Y1008D01*
X386Y1008D01*
X386Y1012D01*
X395Y1012D01*
G37*
D02*
G36*
X463Y1002D02*
X463Y1000D01*
X442Y1000D01*
X442Y998D01*
X438Y998D01*
X438Y996D01*
X434Y996D01*
X434Y998D01*
X436Y998D01*
X436Y1000D01*
X434Y1000D01*
X434Y1002D01*
X463Y1002D01*
G37*
D02*
G36*
X430Y1002D02*
X430Y1000D01*
X428Y1000D01*
X428Y1002D01*
X430Y1002D01*
G37*
D02*
G36*
X426Y1002D02*
X426Y1000D01*
X411Y1000D01*
X411Y998D01*
X409Y998D01*
X409Y1000D01*
X405Y1000D01*
X405Y1002D01*
X426Y1002D01*
G37*
D02*
G36*
X465Y1000D02*
X465Y998D01*
X463Y998D01*
X463Y1000D01*
X465Y1000D01*
G37*
D02*
G36*
X461Y1000D02*
X461Y998D01*
X444Y998D01*
X444Y1000D01*
X461Y1000D01*
G37*
D02*
G36*
X430Y1000D02*
X430Y998D01*
X413Y998D01*
X413Y1000D01*
X430Y1000D01*
G37*
D02*
G36*
X430Y1000D02*
X430Y998D01*
X413Y998D01*
X413Y1000D01*
X430Y1000D01*
G37*
D02*
G36*
X465Y998D02*
X465Y996D01*
X459Y996D01*
X459Y998D01*
X465Y998D01*
G37*
D02*
G36*
X465Y998D02*
X465Y996D01*
X459Y996D01*
X459Y998D01*
X465Y998D01*
G37*
D02*
G36*
X457Y998D02*
X457Y996D01*
X440Y996D01*
X440Y998D01*
X457Y998D01*
G37*
D02*
G36*
X457Y998D02*
X457Y996D01*
X440Y996D01*
X440Y998D01*
X457Y998D01*
G37*
D02*
G36*
X432Y998D02*
X432Y996D01*
X419Y996D01*
X419Y998D01*
X432Y998D01*
G37*
D02*
G36*
X417Y998D02*
X417Y996D01*
X405Y996D01*
X405Y998D01*
X417Y998D01*
G37*
D02*
G36*
X417Y998D02*
X417Y996D01*
X405Y996D01*
X405Y998D01*
X417Y998D01*
G37*
D02*
G36*
X465Y996D02*
X465Y994D01*
X407Y994D01*
X407Y996D01*
X465Y996D01*
G37*
D02*
G36*
X465Y996D02*
X465Y994D01*
X407Y994D01*
X407Y996D01*
X465Y996D01*
G37*
D02*
G36*
X465Y996D02*
X465Y994D01*
X407Y994D01*
X407Y996D01*
X465Y996D01*
G37*
D02*
G36*
X465Y996D02*
X465Y994D01*
X407Y994D01*
X407Y996D01*
X465Y996D01*
G37*
D02*
G36*
X465Y996D02*
X465Y994D01*
X407Y994D01*
X407Y996D01*
X465Y996D01*
G37*
D02*
G36*
X434Y1000D02*
X434Y998D01*
X432Y998D01*
X432Y1000D01*
X434Y1000D01*
G37*
D02*
G36*
X500Y990D02*
X500Y983D01*
X498Y983D01*
X498Y990D01*
X500Y990D01*
G37*
D02*
G36*
X310Y988D02*
X310Y986D01*
X308Y986D01*
X308Y988D01*
X310Y988D01*
G37*
D02*
G36*
X318Y986D02*
X318Y983D01*
X316Y983D01*
X316Y986D01*
X318Y986D01*
G37*
D02*
G36*
X496Y983D02*
X496Y981D01*
X492Y981D01*
X492Y979D01*
X490Y979D01*
X490Y983D01*
X496Y983D01*
G37*
D02*
G36*
X382Y983D02*
X382Y981D01*
X415Y981D01*
X415Y979D01*
X378Y979D01*
X378Y981D01*
X376Y981D01*
X376Y983D01*
X382Y983D01*
G37*
D02*
G36*
X374Y983D02*
X374Y981D01*
X372Y981D01*
X372Y983D01*
X374Y983D01*
G37*
D02*
G36*
X324Y983D02*
X324Y981D01*
X322Y981D01*
X322Y983D01*
X324Y983D01*
G37*
D02*
G36*
X320Y983D02*
X320Y981D01*
X318Y981D01*
X318Y983D01*
X320Y983D01*
G37*
D02*
G36*
X247Y1116D02*
X247Y1114D01*
X254Y1114D01*
X254Y1112D01*
X256Y1112D01*
X256Y1110D01*
X245Y1110D01*
X245Y1108D01*
X243Y1108D01*
X243Y1110D01*
X245Y1110D01*
X245Y1112D01*
X243Y1112D01*
X243Y1114D01*
X245Y1114D01*
X245Y1116D01*
X247Y1116D01*
G37*
D02*
G36*
X258Y1110D02*
X258Y1108D01*
X254Y1108D01*
X254Y1110D01*
X258Y1110D01*
G37*
D02*
G36*
X252Y1110D02*
X252Y1108D01*
X247Y1108D01*
X247Y1110D01*
X252Y1110D01*
G37*
D02*
G36*
X241Y1110D02*
X241Y1108D01*
X237Y1108D01*
X237Y1110D01*
X241Y1110D01*
G37*
D02*
G36*
X256Y1108D02*
X256Y1106D01*
X252Y1106D01*
X252Y1108D01*
X256Y1108D01*
G37*
D02*
G36*
X249Y1108D02*
X249Y1106D01*
X235Y1106D01*
X235Y1108D01*
X249Y1108D01*
G37*
D02*
G36*
X249Y1108D02*
X249Y1106D01*
X235Y1106D01*
X235Y1108D01*
X249Y1108D01*
G37*
D02*
G36*
X249Y1108D02*
X249Y1106D01*
X235Y1106D01*
X235Y1108D01*
X249Y1108D01*
G37*
D02*
G36*
X252Y1106D02*
X252Y1104D01*
X256Y1104D01*
X256Y1099D01*
X252Y1099D01*
X252Y1102D01*
X249Y1102D01*
X249Y1106D01*
X252Y1106D01*
G37*
D02*
G36*
X247Y1106D02*
X247Y1104D01*
X243Y1104D01*
X243Y1102D01*
X241Y1102D01*
X241Y1099D01*
X239Y1099D01*
X239Y1102D01*
X241Y1102D01*
X241Y1104D01*
X235Y1104D01*
X235Y1106D01*
X247Y1106D01*
G37*
D02*
G36*
X247Y1104D02*
X247Y1102D01*
X245Y1102D01*
X245Y1104D01*
X247Y1104D01*
G37*
D02*
G36*
X249Y1102D02*
X249Y1099D01*
X243Y1099D01*
X243Y1102D01*
X249Y1102D01*
G37*
D02*
G36*
X256Y1099D02*
X256Y1097D01*
X237Y1097D01*
X237Y1099D01*
X256Y1099D01*
G37*
D02*
G36*
X256Y1099D02*
X256Y1097D01*
X237Y1097D01*
X237Y1099D01*
X256Y1099D01*
G37*
D02*
G36*
X256Y1099D02*
X256Y1097D01*
X237Y1097D01*
X237Y1099D01*
X256Y1099D01*
G37*
D02*
G36*
X260Y1097D02*
X260Y1095D01*
X262Y1095D01*
X262Y1093D01*
X260Y1093D01*
X260Y1095D01*
X249Y1095D01*
X249Y1097D01*
X260Y1097D01*
G37*
D02*
G36*
X247Y1097D02*
X247Y1095D01*
X239Y1095D01*
X239Y1097D01*
X247Y1097D01*
G37*
D02*
G36*
X258Y1095D02*
X258Y1093D01*
X237Y1093D01*
X237Y1095D01*
X258Y1095D01*
G37*
D02*
G36*
X258Y1095D02*
X258Y1093D01*
X237Y1093D01*
X237Y1095D01*
X258Y1095D01*
G37*
D02*
G36*
X235Y1095D02*
X235Y1091D01*
X231Y1091D01*
X231Y1089D01*
X229Y1089D01*
X229Y1091D01*
X231Y1091D01*
X231Y1093D01*
X233Y1093D01*
X233Y1095D01*
X235Y1095D01*
G37*
D02*
G36*
X266Y1093D02*
X266Y1091D01*
X237Y1091D01*
X237Y1093D01*
X266Y1093D01*
G37*
D02*
G36*
X266Y1093D02*
X266Y1091D01*
X237Y1091D01*
X237Y1093D01*
X266Y1093D01*
G37*
D02*
G36*
X268Y1091D02*
X268Y1089D01*
X264Y1089D01*
X264Y1091D01*
X268Y1091D01*
G37*
D02*
G36*
X262Y1091D02*
X262Y1089D01*
X233Y1089D01*
X233Y1091D01*
X262Y1091D01*
G37*
D02*
G36*
X262Y1091D02*
X262Y1089D01*
X233Y1089D01*
X233Y1091D01*
X262Y1091D01*
G37*
D02*
G36*
X270Y1089D02*
X270Y1087D01*
X237Y1087D01*
X237Y1089D01*
X270Y1089D01*
G37*
D02*
G36*
X270Y1089D02*
X270Y1087D01*
X237Y1087D01*
X237Y1089D01*
X270Y1089D01*
G37*
D02*
G36*
X235Y1089D02*
X235Y1087D01*
X227Y1087D01*
X227Y1089D01*
X235Y1089D01*
G37*
D02*
G36*
X235Y1089D02*
X235Y1087D01*
X227Y1087D01*
X227Y1089D01*
X235Y1089D01*
G37*
D02*
G36*
X272Y1087D02*
X272Y1085D01*
X274Y1085D01*
X274Y1083D01*
X268Y1083D01*
X268Y1085D01*
X266Y1085D01*
X266Y1087D01*
X272Y1087D01*
G37*
D02*
G36*
X264Y1087D02*
X264Y1085D01*
X233Y1085D01*
X233Y1087D01*
X264Y1087D01*
G37*
D02*
G36*
X264Y1087D02*
X264Y1085D01*
X233Y1085D01*
X233Y1087D01*
X264Y1087D01*
G37*
D02*
G36*
X231Y1087D02*
X231Y1085D01*
X227Y1085D01*
X227Y1083D01*
X223Y1083D01*
X223Y1085D01*
X225Y1085D01*
X225Y1087D01*
X231Y1087D01*
G37*
D02*
G36*
X266Y1085D02*
X266Y1083D01*
X262Y1083D01*
X262Y1085D01*
X266Y1085D01*
G37*
D02*
G36*
X260Y1085D02*
X260Y1083D01*
X229Y1083D01*
X229Y1085D01*
X260Y1085D01*
G37*
D02*
G36*
X260Y1085D02*
X260Y1083D01*
X229Y1083D01*
X229Y1085D01*
X260Y1085D01*
G37*
D02*
G36*
X260Y1083D02*
X260Y1081D01*
X258Y1081D01*
X258Y1083D01*
X260Y1083D01*
G37*
D02*
G36*
X256Y1083D02*
X256Y1081D01*
X237Y1081D01*
X237Y1083D01*
X256Y1083D01*
G37*
D02*
G36*
X260Y1081D02*
X260Y1079D01*
X235Y1079D01*
X235Y1081D01*
X260Y1081D01*
G37*
D02*
G36*
X260Y1081D02*
X260Y1079D01*
X235Y1079D01*
X235Y1081D01*
X260Y1081D01*
G37*
D02*
G36*
X258Y1079D02*
X258Y1077D01*
X235Y1077D01*
X235Y1075D01*
X233Y1075D01*
X233Y1073D01*
X231Y1073D01*
X231Y1075D01*
X233Y1075D01*
X233Y1079D01*
X258Y1079D01*
G37*
D02*
G36*
X260Y1077D02*
X260Y1075D01*
X262Y1075D01*
X262Y1073D01*
X258Y1073D01*
X258Y1075D01*
X237Y1075D01*
X237Y1077D01*
X260Y1077D01*
G37*
D02*
G36*
X266Y1075D02*
X266Y1073D01*
X264Y1073D01*
X264Y1075D01*
X266Y1075D01*
G37*
D02*
G36*
X256Y1075D02*
X256Y1073D01*
X235Y1073D01*
X235Y1075D01*
X256Y1075D01*
G37*
D02*
G36*
X272Y1073D02*
X272Y1070D01*
X274Y1070D01*
X274Y1068D01*
X276Y1068D01*
X276Y1066D01*
X274Y1066D01*
X274Y1068D01*
X264Y1068D01*
X264Y1070D01*
X262Y1070D01*
X262Y1073D01*
X272Y1073D01*
G37*
D02*
G36*
X260Y1073D02*
X260Y1070D01*
X229Y1070D01*
X229Y1073D01*
X260Y1073D01*
G37*
D02*
G36*
X260Y1073D02*
X260Y1070D01*
X229Y1070D01*
X229Y1073D01*
X260Y1073D01*
G37*
D02*
G36*
X260Y1073D02*
X260Y1070D01*
X229Y1070D01*
X229Y1073D01*
X260Y1073D01*
G37*
D02*
G36*
X227Y1073D02*
X227Y1070D01*
X225Y1070D01*
X225Y1073D01*
X227Y1073D01*
G37*
D02*
G36*
X262Y1070D02*
X262Y1068D01*
X223Y1068D01*
X223Y1070D01*
X262Y1070D01*
G37*
D02*
G36*
X262Y1070D02*
X262Y1068D01*
X223Y1068D01*
X223Y1070D01*
X262Y1070D01*
G37*
D02*
G36*
X272Y1068D02*
X272Y1066D01*
X260Y1066D01*
X260Y1068D01*
X272Y1068D01*
G37*
D02*
G36*
X272Y1068D02*
X272Y1066D01*
X260Y1066D01*
X260Y1068D01*
X272Y1068D01*
G37*
D02*
G36*
X258Y1068D02*
X258Y1066D01*
X233Y1066D01*
X233Y1068D01*
X258Y1068D01*
G37*
D02*
G36*
X231Y1068D02*
X231Y1066D01*
X229Y1066D01*
X229Y1068D01*
X231Y1068D01*
G37*
D02*
G36*
X227Y1068D02*
X227Y1066D01*
X218Y1066D01*
X218Y1068D01*
X227Y1068D01*
G37*
D02*
G36*
X281Y1066D02*
X281Y1064D01*
X216Y1064D01*
X216Y1066D01*
X281Y1066D01*
G37*
D02*
G36*
X281Y1066D02*
X281Y1064D01*
X216Y1064D01*
X216Y1066D01*
X281Y1066D01*
G37*
D02*
G36*
X281Y1066D02*
X281Y1064D01*
X216Y1064D01*
X216Y1066D01*
X281Y1066D01*
G37*
D02*
G36*
X281Y1066D02*
X281Y1064D01*
X216Y1064D01*
X216Y1066D01*
X281Y1066D01*
G37*
D02*
G36*
X281Y1066D02*
X281Y1064D01*
X216Y1064D01*
X216Y1066D01*
X281Y1066D01*
G37*
D02*
G36*
X283Y1064D02*
X283Y1062D01*
X285Y1062D01*
X285Y1060D01*
X262Y1060D01*
X262Y1062D01*
X258Y1062D01*
X258Y1064D01*
X283Y1064D01*
G37*
D02*
G36*
X256Y1064D02*
X256Y1062D01*
X231Y1062D01*
X231Y1064D01*
X256Y1064D01*
G37*
D02*
G36*
X229Y1064D02*
X229Y1062D01*
X216Y1062D01*
X216Y1064D01*
X229Y1064D01*
G37*
D02*
G36*
X214Y1064D02*
X214Y1062D01*
X212Y1062D01*
X212Y1064D01*
X214Y1064D01*
G37*
D02*
G36*
X260Y1062D02*
X260Y1060D01*
X210Y1060D01*
X210Y1062D01*
X260Y1062D01*
G37*
D02*
G36*
X260Y1062D02*
X260Y1060D01*
X210Y1060D01*
X210Y1062D01*
X260Y1062D01*
G37*
D02*
G36*
X260Y1062D02*
X260Y1060D01*
X210Y1060D01*
X210Y1062D01*
X260Y1062D01*
G37*
D02*
G36*
X260Y1062D02*
X260Y1060D01*
X210Y1060D01*
X210Y1062D01*
X260Y1062D01*
G37*
D02*
G36*
X254Y1060D02*
X254Y1058D01*
X243Y1058D01*
X243Y1056D01*
X241Y1056D01*
X241Y1060D01*
X254Y1060D01*
G37*
D02*
G36*
X252Y1058D02*
X252Y1056D01*
X245Y1056D01*
X245Y1058D01*
X252Y1058D01*
G37*
D02*
G36*
X254Y1056D02*
X254Y1054D01*
X249Y1054D01*
X249Y1052D01*
X243Y1052D01*
X243Y1050D01*
X241Y1050D01*
X241Y1054D01*
X243Y1054D01*
X243Y1056D01*
X254Y1056D01*
G37*
D02*
G36*
X254Y1054D02*
X254Y1052D01*
X252Y1052D01*
X252Y1054D01*
X254Y1054D01*
G37*
D02*
G36*
X254Y1052D02*
X254Y1050D01*
X245Y1050D01*
X245Y1052D01*
X254Y1052D01*
G37*
D02*
G36*
X254Y1052D02*
X254Y1050D01*
X245Y1050D01*
X245Y1052D01*
X254Y1052D01*
G37*
D02*
G36*
X254Y1050D02*
X254Y1048D01*
X241Y1048D01*
X241Y1050D01*
X254Y1050D01*
G37*
D02*
G36*
X254Y1050D02*
X254Y1048D01*
X241Y1048D01*
X241Y1050D01*
X254Y1050D01*
G37*
D02*
G36*
X293Y1048D02*
X293Y1044D01*
X291Y1044D01*
X291Y1046D01*
X289Y1046D01*
X289Y1048D01*
X293Y1048D01*
G37*
D02*
G36*
X287Y1048D02*
X287Y1046D01*
X264Y1046D01*
X264Y1048D01*
X287Y1048D01*
G37*
D02*
G36*
X262Y1048D02*
X262Y1046D01*
X204Y1046D01*
X204Y1048D01*
X262Y1048D01*
G37*
D02*
G36*
X202Y1048D02*
X202Y1046D01*
X198Y1046D01*
X198Y1048D01*
X202Y1048D01*
G37*
D02*
G36*
X303Y1046D02*
X303Y1044D01*
X310Y1044D01*
X310Y1039D01*
X301Y1039D01*
X301Y1041D01*
X295Y1041D01*
X295Y1046D01*
X303Y1046D01*
G37*
D02*
G36*
X289Y1046D02*
X289Y1044D01*
X278Y1044D01*
X278Y1041D01*
X276Y1041D01*
X276Y1044D01*
X266Y1044D01*
X266Y1046D01*
X289Y1046D01*
G37*
D02*
G36*
X264Y1046D02*
X264Y1044D01*
X252Y1044D01*
X252Y1046D01*
X264Y1046D01*
G37*
D02*
G36*
X249Y1046D02*
X249Y1044D01*
X198Y1044D01*
X198Y1046D01*
X249Y1046D01*
G37*
D02*
G36*
X249Y1046D02*
X249Y1044D01*
X198Y1044D01*
X198Y1046D01*
X249Y1046D01*
G37*
D02*
G36*
X293Y1044D02*
X293Y1041D01*
X287Y1041D01*
X287Y1044D01*
X293Y1044D01*
G37*
D02*
G36*
X293Y1044D02*
X293Y1041D01*
X287Y1041D01*
X287Y1044D01*
X293Y1044D01*
G37*
D02*
G36*
X285Y1044D02*
X285Y1041D01*
X281Y1041D01*
X281Y1044D01*
X285Y1044D01*
G37*
D02*
G36*
X274Y1044D02*
X274Y1041D01*
X254Y1041D01*
X254Y1044D01*
X274Y1044D01*
G37*
D02*
G36*
X274Y1044D02*
X274Y1041D01*
X254Y1041D01*
X254Y1044D01*
X274Y1044D01*
G37*
D02*
G36*
X252Y1044D02*
X252Y1041D01*
X247Y1041D01*
X247Y1039D01*
X235Y1039D01*
X235Y1041D01*
X231Y1041D01*
X231Y1044D01*
X252Y1044D01*
G37*
D02*
G36*
X229Y1044D02*
X229Y1041D01*
X227Y1041D01*
X227Y1039D01*
X198Y1039D01*
X198Y1044D01*
X229Y1044D01*
G37*
D02*
G36*
X314Y1041D02*
X314Y1039D01*
X312Y1039D01*
X312Y1041D01*
X314Y1041D01*
G37*
D02*
G36*
X299Y1041D02*
X299Y1039D01*
X278Y1039D01*
X278Y1041D01*
X299Y1041D01*
G37*
D02*
G36*
X299Y1041D02*
X299Y1039D01*
X278Y1039D01*
X278Y1041D01*
X299Y1041D01*
G37*
D02*
G36*
X299Y1041D02*
X299Y1039D01*
X278Y1039D01*
X278Y1041D01*
X299Y1041D01*
G37*
D02*
G36*
X276Y1041D02*
X276Y1039D01*
X258Y1039D01*
X258Y1037D01*
X256Y1037D01*
X256Y1039D01*
X252Y1039D01*
X252Y1041D01*
X276Y1041D01*
G37*
D02*
G36*
X233Y1041D02*
X233Y1039D01*
X229Y1039D01*
X229Y1041D01*
X233Y1041D01*
G37*
D02*
G36*
X314Y1039D02*
X314Y1037D01*
X308Y1037D01*
X308Y1039D01*
X314Y1039D01*
G37*
D02*
G36*
X314Y1039D02*
X314Y1037D01*
X308Y1037D01*
X308Y1039D01*
X314Y1039D01*
G37*
D02*
G36*
X305Y1039D02*
X305Y1037D01*
X297Y1037D01*
X297Y1039D01*
X305Y1039D01*
G37*
D02*
G36*
X305Y1039D02*
X305Y1037D01*
X297Y1037D01*
X297Y1039D01*
X305Y1039D01*
G37*
D02*
G36*
X295Y1039D02*
X295Y1037D01*
X293Y1037D01*
X293Y1039D01*
X295Y1039D01*
G37*
D02*
G36*
X289Y1039D02*
X289Y1037D01*
X287Y1037D01*
X287Y1039D01*
X289Y1039D01*
G37*
D02*
G36*
X285Y1039D02*
X285Y1037D01*
X274Y1037D01*
X274Y1039D01*
X285Y1039D01*
G37*
D02*
G36*
X285Y1039D02*
X285Y1037D01*
X274Y1037D01*
X274Y1039D01*
X285Y1039D01*
G37*
D02*
G36*
X272Y1039D02*
X272Y1037D01*
X270Y1037D01*
X270Y1035D01*
X266Y1035D01*
X266Y1037D01*
X264Y1037D01*
X264Y1039D01*
X272Y1039D01*
G37*
D02*
G36*
X262Y1039D02*
X262Y1037D01*
X260Y1037D01*
X260Y1039D01*
X262Y1039D01*
G37*
D02*
G36*
X254Y1039D02*
X254Y1037D01*
X241Y1037D01*
X241Y1039D01*
X254Y1039D01*
G37*
D02*
G36*
X254Y1039D02*
X254Y1037D01*
X241Y1037D01*
X241Y1039D01*
X254Y1039D01*
G37*
D02*
G36*
X239Y1039D02*
X239Y1037D01*
X198Y1037D01*
X198Y1039D01*
X239Y1039D01*
G37*
D02*
G36*
X239Y1039D02*
X239Y1037D01*
X198Y1037D01*
X198Y1039D01*
X239Y1039D01*
G37*
D02*
G36*
X239Y1039D02*
X239Y1037D01*
X198Y1037D01*
X198Y1039D01*
X239Y1039D01*
G37*
D02*
G36*
X310Y1037D02*
X310Y1035D01*
X293Y1035D01*
X293Y1037D01*
X310Y1037D01*
G37*
D02*
G36*
X310Y1037D02*
X310Y1035D01*
X293Y1035D01*
X293Y1037D01*
X310Y1037D01*
G37*
D02*
G36*
X310Y1037D02*
X310Y1035D01*
X293Y1035D01*
X293Y1037D01*
X310Y1037D01*
G37*
D02*
G36*
X291Y1037D02*
X291Y1035D01*
X272Y1035D01*
X272Y1037D01*
X291Y1037D01*
G37*
D02*
G36*
X291Y1037D02*
X291Y1035D01*
X272Y1035D01*
X272Y1037D01*
X291Y1037D01*
G37*
D02*
G36*
X264Y1037D02*
X264Y1035D01*
X262Y1035D01*
X262Y1037D01*
X264Y1037D01*
G37*
D02*
G36*
X260Y1037D02*
X260Y1035D01*
X258Y1035D01*
X258Y1037D01*
X260Y1037D01*
G37*
D02*
G36*
X256Y1037D02*
X256Y1035D01*
X252Y1035D01*
X252Y1037D01*
X256Y1037D01*
G37*
D02*
G36*
X249Y1037D02*
X249Y1035D01*
X243Y1035D01*
X243Y1037D01*
X249Y1037D01*
G37*
D02*
G36*
X241Y1037D02*
X241Y1035D01*
X237Y1035D01*
X237Y1037D01*
X241Y1037D01*
G37*
D02*
G36*
X235Y1037D02*
X235Y1035D01*
X223Y1035D01*
X223Y1033D01*
X198Y1033D01*
X198Y1037D01*
X235Y1037D01*
G37*
D02*
G36*
X297Y1035D02*
X297Y1033D01*
X295Y1033D01*
X295Y1035D01*
X297Y1035D01*
G37*
D02*
G36*
X289Y1035D02*
X289Y1033D01*
X285Y1033D01*
X285Y1035D01*
X289Y1035D01*
G37*
D02*
G36*
X283Y1035D02*
X283Y1033D01*
X249Y1033D01*
X249Y1035D01*
X283Y1035D01*
G37*
D02*
G36*
X283Y1035D02*
X283Y1033D01*
X249Y1033D01*
X249Y1035D01*
X283Y1035D01*
G37*
D02*
G36*
X283Y1035D02*
X283Y1033D01*
X249Y1033D01*
X249Y1035D01*
X283Y1035D01*
G37*
D02*
G36*
X283Y1035D02*
X283Y1033D01*
X249Y1033D01*
X249Y1035D01*
X283Y1035D01*
G37*
D02*
G36*
X283Y1035D02*
X283Y1033D01*
X249Y1033D01*
X249Y1035D01*
X283Y1035D01*
G37*
D02*
G36*
X247Y1035D02*
X247Y1033D01*
X227Y1033D01*
X227Y1035D01*
X247Y1035D01*
G37*
D02*
G36*
X247Y1035D02*
X247Y1033D01*
X227Y1033D01*
X227Y1035D01*
X247Y1035D01*
G37*
D02*
G36*
X247Y1035D02*
X247Y1033D01*
X227Y1033D01*
X227Y1035D01*
X247Y1035D01*
G37*
D02*
G36*
X270Y1033D02*
X270Y1031D01*
X260Y1031D01*
X260Y1033D01*
X270Y1033D01*
G37*
D02*
G36*
X258Y1033D02*
X258Y1031D01*
X241Y1031D01*
X241Y1033D01*
X258Y1033D01*
G37*
D02*
G36*
X258Y1033D02*
X258Y1031D01*
X241Y1031D01*
X241Y1033D01*
X258Y1033D01*
G37*
D02*
G36*
X239Y1033D02*
X239Y1031D01*
X237Y1031D01*
X237Y1033D01*
X239Y1033D01*
G37*
D02*
G36*
X235Y1033D02*
X235Y1031D01*
X198Y1031D01*
X198Y1033D01*
X235Y1033D01*
G37*
D02*
G36*
X235Y1033D02*
X235Y1031D01*
X198Y1031D01*
X198Y1033D01*
X235Y1033D01*
G37*
D02*
G36*
X245Y1031D02*
X245Y1029D01*
X233Y1029D01*
X233Y1031D01*
X245Y1031D01*
G37*
D02*
G36*
X245Y1031D02*
X245Y1029D01*
X233Y1029D01*
X233Y1031D01*
X245Y1031D01*
G37*
D02*
G36*
X245Y1031D02*
X245Y1029D01*
X233Y1029D01*
X233Y1031D01*
X245Y1031D01*
G37*
D02*
G36*
X231Y1031D02*
X231Y1029D01*
X227Y1029D01*
X227Y1031D01*
X231Y1031D01*
G37*
D02*
G36*
X225Y1031D02*
X225Y1029D01*
X220Y1029D01*
X220Y1027D01*
X198Y1027D01*
X198Y1031D01*
X225Y1031D01*
G37*
D02*
G36*
X229Y1029D02*
X229Y1027D01*
X223Y1027D01*
X223Y1029D01*
X229Y1029D01*
G37*
D02*
G36*
X229Y1029D02*
X229Y1027D01*
X223Y1027D01*
X223Y1029D01*
X229Y1029D01*
G37*
D02*
G36*
X225Y1027D02*
X225Y1025D01*
X198Y1025D01*
X198Y1027D01*
X225Y1027D01*
G37*
D02*
G36*
X225Y1027D02*
X225Y1025D01*
X198Y1025D01*
X198Y1027D01*
X225Y1027D01*
G37*
D02*
G36*
X220Y1025D02*
X220Y1023D01*
X214Y1023D01*
X214Y1025D01*
X220Y1025D01*
G37*
D02*
G36*
X212Y1025D02*
X212Y1023D01*
X208Y1023D01*
X208Y1021D01*
X206Y1021D01*
X206Y1019D01*
X204Y1019D01*
X204Y1017D01*
X198Y1017D01*
X198Y1025D01*
X212Y1025D01*
G37*
D02*
G36*
X216Y1023D02*
X216Y1021D01*
X212Y1021D01*
X212Y1023D01*
X216Y1023D01*
G37*
D02*
G36*
X212Y1021D02*
X212Y1019D01*
X208Y1019D01*
X208Y1021D01*
X212Y1021D01*
G37*
D02*
G36*
X212Y1019D02*
X212Y1017D01*
X206Y1017D01*
X206Y1019D01*
X212Y1019D01*
G37*
D02*
G36*
X210Y1017D02*
X210Y1015D01*
X198Y1015D01*
X198Y1017D01*
X210Y1017D01*
G37*
D02*
G36*
X210Y1017D02*
X210Y1015D01*
X198Y1015D01*
X198Y1017D01*
X210Y1017D01*
G37*
D02*
G36*
X210Y1015D02*
X210Y1008D01*
X206Y1008D01*
X206Y1006D01*
X204Y1006D01*
X204Y1004D01*
X198Y1004D01*
X198Y1015D01*
X210Y1015D01*
G37*
D02*
G36*
X210Y1008D02*
X210Y1006D01*
X208Y1006D01*
X208Y1008D01*
X210Y1008D01*
G37*
D02*
G36*
X212Y1006D02*
X212Y1002D01*
X210Y1002D01*
X210Y1004D01*
X206Y1004D01*
X206Y1006D01*
X212Y1006D01*
G37*
D02*
G36*
X208Y1004D02*
X208Y1002D01*
X198Y1002D01*
X198Y1004D01*
X208Y1004D01*
G37*
D02*
G36*
X208Y1004D02*
X208Y1002D01*
X198Y1002D01*
X198Y1004D01*
X208Y1004D01*
G37*
D02*
G36*
X214Y1002D02*
X214Y1000D01*
X206Y1000D01*
X206Y1002D01*
X214Y1002D01*
G37*
D02*
G36*
X214Y1002D02*
X214Y1000D01*
X206Y1000D01*
X206Y1002D01*
X214Y1002D01*
G37*
D02*
G36*
X204Y1002D02*
X204Y1000D01*
X198Y1000D01*
X198Y1002D01*
X204Y1002D01*
G37*
D02*
G36*
X214Y1000D02*
X214Y998D01*
X216Y998D01*
X216Y996D01*
X214Y996D01*
X214Y998D01*
X208Y998D01*
X208Y1000D01*
X214Y1000D01*
G37*
D02*
G36*
X206Y1000D02*
X206Y998D01*
X198Y998D01*
X198Y1000D01*
X206Y1000D01*
G37*
D02*
G36*
X212Y998D02*
X212Y996D01*
X198Y996D01*
X198Y998D01*
X212Y998D01*
G37*
D02*
G36*
X212Y998D02*
X212Y996D01*
X198Y996D01*
X198Y998D01*
X212Y998D01*
G37*
D02*
G36*
X218Y996D02*
X218Y992D01*
X220Y992D01*
X220Y990D01*
X223Y990D01*
X223Y988D01*
X227Y988D01*
X227Y986D01*
X220Y986D01*
X220Y988D01*
X218Y988D01*
X218Y990D01*
X216Y990D01*
X216Y992D01*
X214Y992D01*
X214Y994D01*
X212Y994D01*
X212Y996D01*
X218Y996D01*
G37*
D02*
G36*
X210Y996D02*
X210Y994D01*
X198Y994D01*
X198Y996D01*
X210Y996D01*
G37*
D02*
G36*
X212Y994D02*
X212Y992D01*
X200Y992D01*
X200Y990D01*
X198Y990D01*
X198Y994D01*
X212Y994D01*
G37*
D02*
G36*
X214Y992D02*
X214Y990D01*
X202Y990D01*
X202Y992D01*
X214Y992D01*
G37*
D02*
G36*
X216Y990D02*
X216Y988D01*
X212Y988D01*
X212Y990D01*
X216Y990D01*
G37*
D02*
G36*
X210Y990D02*
X210Y988D01*
X198Y988D01*
X198Y990D01*
X210Y990D01*
G37*
D02*
G36*
X210Y990D02*
X210Y988D01*
X198Y988D01*
X198Y990D01*
X210Y990D01*
G37*
D02*
G36*
X218Y988D02*
X218Y986D01*
X204Y986D01*
X204Y988D01*
X218Y988D01*
G37*
D02*
G36*
X218Y988D02*
X218Y986D01*
X204Y986D01*
X204Y988D01*
X218Y988D01*
G37*
D02*
G36*
X202Y988D02*
X202Y986D01*
X200Y986D01*
X200Y983D01*
X198Y983D01*
X198Y988D01*
X202Y988D01*
G37*
D02*
G36*
X227Y986D02*
X227Y983D01*
X216Y983D01*
X216Y986D01*
X227Y986D01*
G37*
D02*
G36*
X227Y986D02*
X227Y983D01*
X216Y983D01*
X216Y986D01*
X227Y986D01*
G37*
D02*
G36*
X214Y986D02*
X214Y983D01*
X202Y983D01*
X202Y986D01*
X214Y986D01*
G37*
D02*
G36*
X231Y983D02*
X231Y981D01*
X227Y981D01*
X227Y983D01*
X231Y983D01*
G37*
D02*
G36*
X225Y983D02*
X225Y981D01*
X204Y981D01*
X204Y983D01*
X225Y983D01*
G37*
D02*
G36*
X225Y983D02*
X225Y981D01*
X204Y981D01*
X204Y983D01*
X225Y983D01*
G37*
D02*
G36*
X235Y981D02*
X235Y979D01*
X202Y979D01*
X202Y981D01*
X235Y981D01*
G37*
D02*
G36*
X235Y981D02*
X235Y979D01*
X202Y979D01*
X202Y981D01*
X235Y981D01*
G37*
D02*
G36*
X202Y983D02*
X202Y981D01*
X200Y981D01*
X200Y983D01*
X202Y983D01*
G37*
D02*
G36*
X488Y981D02*
X488Y979D01*
X467Y979D01*
X467Y981D01*
X488Y981D01*
G37*
D02*
G36*
X465Y981D02*
X465Y979D01*
X417Y979D01*
X417Y981D01*
X465Y981D01*
G37*
D02*
G36*
X200Y981D02*
X200Y979D01*
X198Y979D01*
X198Y981D01*
X200Y981D01*
G37*
D02*
G04 End of Silk0*
M02*