; NON-PLATED HOLES START AT T1
; THROUGH (PLATED) HOLES START AT T100
M48
INCH
T1C0.043307
T100C0.035000
T101C0.036000
T102C0.042000
T103C0.086614
T104C0.040000
%
T1
X003906Y013077
X002135Y013077
T100
X001464Y010292
X002464Y006292
X005464Y004292
X005464Y005292
X001464Y011192
X002564Y001692
X003564Y001692
X005464Y006292
X005464Y010292
X001464Y009392
X002464Y003292
X005464Y011192
X002464Y004292
X005464Y009392
X002464Y005292
X005464Y003292
T101
X001643Y012092
X003464Y012092
X002577Y012092
X004398Y012092
T102
X002464Y007392
X005444Y007392
X002464Y008392
X005444Y008392
T103
X005304Y013037
X000737Y013037
T104
X000922Y002217
X000922Y006351
X005164Y000614
X000922Y004973
X000922Y000840
X000922Y003595
X005164Y001992
X000922Y007729
T00
M30
